<?xml version="1.0" standalone="no"?><svg width="3655" height="2411" viewBox="0 0 3655 2411" xmlns="http://www.w3.org/2000/svg" xmlns:xlink="http://www.w3.org/1999/xlink"><svg version="1" width="68.67" height="68.67" viewBox="-1 -1 52 52" id="checker" x="643.33" y="2002" xmlns="http://www.w3.org/2000/svg"><g transform="matrix(.1 0 0 -.1 0 50)"><path d="M310 315c0-9 6-12 15-9 8 4 15 10 15 15s-7 9-15 9-15-7-15-15zM177 276c-3-8 1-22 8-33 8-10 15-28 15-40 0-31 27-30 41 1 9 20 8 27-10 45-12 12-21 26-21 31 0 15-27 12-33-4z"/></g></svg><svg id="comment" data-name="Layer 1" width="66" height="66" viewBox="-1 -1 66 66" x="898" y="2002" xmlns="http://www.w3.org/2000/svg"><defs><style>.bcls-1{fill:#2f5572}</style></defs><title>comment</title><path class="bcls-1" d="M.72.08A.67.67 0 0 0 0 .8v46.48a.72.72 0 0 0 .72.72H48l16 16V.72a.67.67 0 0 0-.72-.72H.8z"/></svg><svg version="1" width="1652.67" height="1992.67" viewBox="-1 -1 1240 1495" id="cover" x="2002" xmlns="http://www.w3.org/2000/svg"><g transform="matrix(.1 0 0 -.1 0 1493)"><path d="M3808 14923c7-3 16-2 19 1 4 3-2 6-13 5-11 0-14-3-6-6zM3858 14923c7-3 16-2 19 1 4 3-2 6-13 5-11 0-14-3-6-6zM3578 14903c7-3 16-2 19 1 4 3-2 6-13 5-11 0-14-3-6-6zM3218 14853c7-3 16-2 19 1 4 3-2 6-13 5-11 0-14-3-6-6zM3198 14713c7-3 16-2 19 1 4 3-2 6-13 5-11 0-14-3-6-6zM3930 14635c13-14 26-25 28-25 3 0-5 11-18 25s-26 25-28 25c-3 0 5-11 18-25zM3869 14623c-13-16-12-17 4-4s21 21 13 21c-2 0-10-8-17-17zM3970 14586c0-2 8-10 18-17 15-13 16-12 3 4s-21 21-21 13zM3449 14563c-13-16-12-17 4-4s21 21 13 21c-2 0-10-8-17-17zM3769 14523l-24-28 28 24c25 23 32 31 24 31-2 0-14-12-28-27zM3404 14508l-19-23 23 19c21 18 27 26 19 26-2 0-12-10-23-22zM4550 14526c0-2 7-7 16-10 8-3 12-2 9 4-6 10-25 14-25 6zM4832 14430c0-14 2-19 5-12 2 6 2 18 0 25-3 6-5 1-5-13zM2414 14414c-18-14-18-15 4-4 12 6 22 13 22 15 0 8-5 6-26-11zM3319 14403c-13-16-12-17 4-4 9 7 17 15 17 17 0 8-8 3-21-13zM3109 14173c-13-16-12-17 4-4 9 7 17 15 17 17 0 8-8 3-21-13zM4485 14140c-11-12-25-18-34-15-13 5-14 4-3-7 10-10 17-7 39 15 15 15 25 27 22 27s-14-9-24-20zM3828 14043c7-3 16-2 19 1 4 3-2 6-13 5-11 0-14-3-6-6zM4198 13993c7-3 16-2 19 1 4 3-2 6-13 5-11 0-14-3-6-6zM3528 13953c7-3 16-2 19 1 4 3-2 6-13 5-11 0-14-3-6-6zM3608 13953c7-3 16-2 19 1 4 3-2 6-13 5-11 0-14-3-6-6zM3728 13943c7-3 16-2 19 1 4 3-2 6-13 5-11 0-14-3-6-6zM3550 13825c13-14 26-25 28-25 3 0-5 11-18 25s-26 25-28 25c-3 0 5-11 18-25zM3290 13765c13-14 26-25 28-25 3 0-5 11-18 25s-26 25-28 25c-3 0 5-11 18-25zM4529 13753c-17-20-18-23-3-10 11 9 23 15 26 12 2-3 5 2 5 10 0 19 1 20-28-12zM4104 13738l-19-23 23 19c21 18 27 26 19 26-2 0-12-10-23-22zM3635 13730c10-11 20-20 23-20s-3 9-13 20-20 20-23 20 3-9 13-20zM4691 13714c0-11 3-14 6-6 3 7 2 16-1 19-3 4-6-2-5-13zM4049 13673l-24-28 28 24c25 23 32 31 24 31-2 0-14-12-28-27zM844 13668l-19-23 23 19c21 18 27 26 19 26-2 0-12-10-23-22zM3445 13620c33-33 62-60 64-60 3 0-21 27-54 60s-62 60-64 60c-3 0 21-27 54-60zM3690 13667c0-1 35-36 78-77l77-75-75 78c-69 71-80 82-80 74zM3984 13598l-29-33 33 29c30 28 37 36 29 36-2 0-16-15-33-32zM4310 13545c-41-41-72-75-69-75 2 0 38 34 79 75s72 75 69 75c-2 0-38-34-79-75zM934 13558l-29-33 33 29c30 28 37 36 29 36-2 0-16-15-33-32zM689 13513c-13-16-12-17 4-4 9 7 17 15 17 17 0 8-8 3-21-13zM3555 13500c10-11 20-20 23-20s-3 9-13 20-20 20-23 20 3-9 13-20zM864 13478l-19-23 23 19c12 11 22 21 22 23 0 8-8 2-26-19zM589 13393c-13-16-12-17 4-4s21 21 13 21c-2 0-10-8-17-17zM789 13383c-13-16-12-17 4-4s21 21 13 21c-2 0-10-8-17-17zM1690 13350c-9-6-10-10-3-10 6 0 15 5 18 10 8 12 4 12-15 0zM749 13333c-13-16-12-17 4-4s21 21 13 21c-2 0-10-8-17-17zM4064 13308l-19-23 23 19c21 18 27 26 19 26-2 0-12-10-23-22zM489 13263c-13-16-12-17 4-4s21 21 13 21c-2 0-10-8-17-17zM3995 13238l-40-43 43 40c39 36 47 45 39 45-2 0-21-19-42-42zM634 13198l-19-23 23 19c12 11 22 21 22 23 0 8-8 2-26-19zM409 13153c-13-16-12-17 4-4s21 21 13 21c-2 0-10-8-17-17zM599 13153c-13-16-12-17 4-4s21 21 13 21c-2 0-10-8-17-17zM379 13113c-13-16-12-17 4-4s21 21 13 21c-2 0-10-8-17-17zM3932 13100c0-14 2-19 5-12 2 6 2 18 0 25-3 6-5 1-5-13zM3160 13060c-9-6-10-10-3-10 6 0 15 5 18 10 8 12 4 12-15 0zM678 13033c7-3 16-2 19 1 4 3-2 6-13 5-11 0-14-3-6-6zM718 13033c7-3 16-2 19 1 4 3-2 6-13 5-11 0-14-3-6-6zM299 13003c-13-16-12-17 4-4s21 21 13 21c-2 0-10-8-17-17zM239 12923c-13-16-12-17 4-4s21 21 13 21c-2 0-10-8-17-17zM3812 12840c0-14 2-19 5-12 2 6 2 18 0 25-3 6-5 1-5-13zM2448 12833c7-3 16-2 19 1 4 3-2 6-13 5-11 0-14-3-6-6zM1628 12823c7-3 16-2 19 1 4 3-2 6-13 5-11 0-14-3-6-6zM2528 12823c7-3 16-2 19 1 4 3-2 6-13 5-11 0-14-3-6-6zM3961 12794c0-11 3-14 6-6 3 7 2 16-1 19-3 4-6-2-5-13zM933 12793c15-2 37-2 50 0 12 2 0 4-28 4-27 0-38-2-22-4zM1028 12793c7-3 16-2 19 1 4 3-2 6-13 5-11 0-14-3-6-6zM141 12774c0-11 3-14 6-6 3 7 2 16-1 19-3 4-6-2-5-13zM3821 12674c0-11 3-14 6-6 3 7 2 16-1 19-3 4-6-2-5-13zM1174 12588l-19-23 23 19c21 18 27 26 19 26-2 0-12-10-23-22zM3832 12480c0-19 2-27 5-17 2 9 2 25 0 35-3 9-5 1-5-18zM5915 12438l-40-43 43 40c39 36 47 45 39 45-2 0-21-19-42-42zM81 12454c0-11 3-14 6-6 3 7 2 16-1 19-3 4-6-2-5-13zM1040 12390c-6-11-8-20-6-20 3 0 10 9 16 20s8 20 6 20c-3 0-10-9-16-20zM3508 12393c7-3 16-2 19 1 4 3-2 6-13 5-11 0-14-3-6-6zM4001 12384c0-11 3-14 6-6 3 7 2 16-1 19-3 4-6-2-5-13zM3444 12358l-19-23 23 19c12 11 22 21 22 23 0 8-8 2-26-19zM5961 12364c0-11 3-14 6-6 3 7 2 16-1 19-3 4-6-2-5-13zM4829 12303l-24-28 28 24c25 23 32 31 24 31-2 0-14-12-28-27zM4990 12316c0-2 8-10 18-17 15-13 16-12 3 4s-21 21-21 13zM6870 12295c13-14 26-25 28-25 3 0-5 11-18 25s-26 25-28 25c-3 0 5-11 18-25zM4011 12284c0-11 3-14 6-6 3 7 2 16-1 19-3 4-6-2-5-13zM5026 12267c3-10 9-15 12-12s0 11-7 18c-10 9-11 8-5-6zM3842 12240c0-19 2-27 5-17 2 9 2 25 0 35-3 9-5 1-5-18zM6134 12202c3-5 0-13-6-15-9-4-10-6-1-6 17-1 25 16 12 25-7 4-9 3-5-4zM1193 12073c9-2 23-2 30 0 6 3-1 5-18 5-16 0-22-2-12-5zM1048 12063c6-2 18-2 25 0 6 3 1 5-13 5s-19-2-12-5zM1 12044c0-11 3-14 6-6 3 7 2 16-1 19-3 4-6-2-5-13zM5840 12036c0-2 8-10 18-17 15-13 16-12 3 4s-21 21-21 13zM258 12003c7-3 16-2 19 1 4 3-2 6-13 5-11 0-14-3-6-6zM1854 11996c-10-8-17-16-14-19 3-2 14 4 24 14 23 22 18 25-10 5zM5895 11970c10-11 20-20 23-20s-3 9-13 20-20 20-23 20 3-9 13-20zM3852 11960c0-14 2-19 5-12 2 6 2 18 0 25-3 6-5 1-5-13zM1870 11926c0-2 8-10 18-17 15-13 16-12 3 4s-21 21-21 13zM8344 11888l-29-33 33 29c30 28 37 36 29 36-2 0-16-15-33-32zM6864 11878l-19-23 23 19c12 11 22 21 22 23 0 8-8 2-26-19zM4051 11874c0-11 3-14 6-6 3 7 2 16-1 19-3 4-6-2-5-13zM5214 11828l-19-23 23 19c21 18 27 26 19 26-2 0-12-10-23-22zM1253 11823c9-2 23-2 30 0 6 3-1 5-18 5-16 0-22-2-12-5zM1018 11803c7-3 16-2 19 1 4 3-2 6-13 5-11 0-14-3-6-6zM4061 11774c0-11 3-14 6-6 3 7 2 16-1 19-3 4-6-2-5-13zM5422 11740c0-14 2-19 5-12 2 6 2 18 0 25-3 6-5 1-5-13zM5969 11733l-24-28 28 24c15 14 27 26 27 28 0 8-8 1-31-24zM6220 11756c0-2 8-10 18-17 15-13 16-12 3 4s-21 21-21 13zM3862 11670c0-14 2-19 5-12 2 6 2 18 0 25-3 6-5 1-5-13zM7214 11618l-29-33 33 29c30 28 37 36 29 36-2 0-16-15-33-32zM5288 11613c6-2 18-2 25 0 6 3 1 5-13 5s-19-2-12-5zM4888 11583c7-3 16-2 19 1 4 3-2 6-13 5-11 0-14-3-6-6zM3601 11564c0-11 3-14 6-6 3 7 2 16-1 19-3 4-6-2-5-13zM6370 11566c0-2 7-7 16-10 8-3 12-2 9 4-6 10-25 14-25 6zM5050 11526c0-2 8-10 18-17 15-13 16-12 3 4s-21 21-21 13zM5838 11503c6-2 18-2 25 0 6 3 1 5-13 5s-19-2-12-5zM6468 11503c7-3 16-2 19 1 4 3-2 6-13 5-11 0-14-3-6-6zM8295 11490c10-11 20-20 23-20s-3 9-13 20-20 20-23 20 3-9 13-20zM6588 11493c6-2 18-2 25 0 6 3 1 5-13 5s-19-2-12-5zM3630 11486c0-2 8-10 18-17 15-13 16-12 3 4s-21 21-21 13zM5448 11483c6-2 18-2 25 0 6 3 1 5-13 5s-19-2-12-5zM6688 11483c6-2 18-2 25 0 6 3 1 5-13 5s-19-2-12-5zM6788 11473c7-3 16-2 19 1 4 3-2 6-13 5-11 0-14-3-6-6zM3780 11460c-9-6-10-10-3-10 6 0 15 5 18 10 8 12 4 12-15 0zM5978 11443c7-3 16-2 19 1 4 3-2 6-13 5-11 0-14-3-6-6zM5788 11433c6-2 18-2 25 0 6 3 1 5-13 5s-19-2-12-5zM6508 11433c7-3 16-2 19 1 4 3-2 6-13 5-11 0-14-3-6-6zM6120 11409c0-5 5-7 10-4 6 3 10 8 10 11 0 2-4 4-10 4-5 0-10-5-10-11zM6728 11413c7-3 16-2 19 1 4 3-2 6-13 5-11 0-14-3-6-6zM6808 11403c7-3 16-2 19 1 4 3-2 6-13 5-11 0-14-3-6-6zM8375 11400c-3-5-1-10 4-10 6 0 11 5 11 10 0 6-2 10-4 10-3 0-8-4-11-10zM3872 11375c0-16 2-22 5-12 2 9 2 23 0 30-3 6-5-1-5-18zM7449 11373l-24-28 28 24c15 14 27 26 27 28 0 8-8 1-31-24zM9078 11343c7-3 16-2 19 1 4 3-2 6-13 5-11 0-14-3-6-6zM5039 11283l-24-28 28 24c25 23 32 31 24 31-2 0-14-12-28-27zM5661 11294c0-11 3-14 6-6 3 7 2 16-1 19-3 4-6-2-5-13zM5252 11275c0-16 2-22 5-12 2 9 2 23 0 30-3 6-5-1-5-18zM9340 11265c13-14 26-25 28-25 3 0-5 11-18 25s-26 25-28 25c-3 0 5-11 18-25zM2840 11276c0-2 8-10 18-17 15-13 16-12 3 4s-21 21-21 13zM5661 11254c0-11 3-14 6-6 3 7 2 16-1 19-3 4-6-2-5-13zM8909 11243c-13-16-12-17 4-4 9 7 17 15 17 17 0 8-8 3-21-13zM6462 11195c0-16 2-22 5-12 2 9 2 23 0 30-3 6-5-1-5-18zM7659 11203c-13-16-12-17 4-4s21 21 13 21c-2 0-10-8-17-17zM7034 11188l-19-23 23 19c21 18 27 26 19 26-2 0-12-10-23-22zM5838 11193c6-2 18-2 25 0 6 3 1 5-13 5s-19-2-12-5zM4602 11170c0-14 2-19 5-12 2 6 2 18 0 25-3 6-5 1-5-13zM5910 11176c0-2 8-10 18-17 15-13 16-12 3 4s-21 21-21 13zM5280 11166c0-2 8-10 18-17 15-13 16-12 3 4s-21 21-21 13zM6453 11115c0-8 4-12 9-9s6 10 3 15c-9 13-12 11-12-6zM4420 11116c0-2 8-10 18-17 15-13 16-12 3 4s-21 21-21 13zM4630 11086c0-2 8-10 18-17 15-13 16-12 3 4s-21 21-21 13zM4829 11073c-13-16-12-17 4-4s21 21 13 21c-2 0-10-8-17-17zM6778 11083c7-3 16-2 19 1 4 3-2 6-13 5-11 0-14-3-6-6zM7761 11044c0-11 3-14 6-6 3 7 2 16-1 19-3 4-6-2-5-13zM6003 11033c9-2 23-2 30 0 6 3-1 5-18 5-16 0-22-2-12-5zM6389 11023c-13-16-12-17 4-4s21 21 13 21c-2 0-10-8-17-17zM7148 11033c7-3 16-2 19 1 4 3-2 6-13 5-11 0-14-3-6-6zM7256 11025c4-8 11-15 16-15 6 0 5 6-2 15-7 8-14 15-16 15s-1-7 2-15zM6703 11023c9-2 23-2 30 0 6 3-1 5-18 5-16 0-22-2-12-5zM6779 10993l-24-28 28 24c15 14 27 26 27 28 0 8-8 1-31-24zM5668 11003c7-3 16-2 19 1 4 3-2 6-13 5-11 0-14-3-6-6zM5907 11003c-10-9-9-23 1-23 5 0 9 7 9 15 0 17-1 18-10 8zM5785 10990c-3-5-1-10 4-10 6 0 11 5 11 10 0 6-2 10-4 10-3 0-8-4-11-10zM6334 10984c-18-14-18-15 4-4 12 6 22 13 22 15 0 8-5 6-26-11zM6553 10993c9-2 23-2 30 0 6 3-1 5-18 5-16 0-22-2-12-5zM7729 10983c-13-16-12-17 4-4s21 21 13 21c-2 0-10-8-17-17zM7110 10971c0-6 4-13 10-16s7 1 4 9c-7 18-14 21-14 7zM8487 10959c7-7 15-10 18-7s-2 9-12 12c-14 6-15 5-6-5zM2862 10914c10-10 20-16 22-13 3 3-5 11-17 18-21 13-21 12-5-5zM3840 10880c0-5 5-10 11-10 5 0 7 5 4 10-3 6-8 10-11 10-2 0-4-4-4-10zM3918 10883c6-2 18-2 25 0 6 3 1 5-13 5s-19-2-12-5zM3793 10862c-18-9-33-19-33-23 0-5 15 0 33 9 42 22 41 21 36 26-2 2-19-3-36-12zM6722 10850c0-19 2-27 5-17 2 9 2 25 0 35-3 9-5 1-5-18zM9334 10848l-29-33 33 29c30 28 37 36 29 36-2 0-16-15-33-32zM4449 10853c-13-16-12-17 4-4s21 21 13 21c-2 0-10-8-17-17zM7371 10834c0-11 3-14 6-6 3 7 2 16-1 19-3 4-6-2-5-13zM8028 10843c6-2 18-2 25 0 6 3 1 5-13 5s-19-2-12-5zM6538 10833c7-3 16-2 19 1 4 3-2 6-13 5-11 0-14-3-6-6zM3723 10823c4-3-1-16-10-27-18-21-18-21 4-2 20 16 23 36 6 36-4 0-3-3 0-7zM4115 10810c10-11 20-20 23-20s-3 9-13 20-20 20-23 20 3-9 13-20zM6678 10823c7-3 16-2 19 1 4 3-2 6-13 5-11 0-14-3-6-6zM7349 10793c-13-16-12-17 4-4s21 21 13 21c-2 0-10-8-17-17zM8100 10796c0-8 4-17 9-20 5-4 7 3 4 14-6 23-13 26-13 6zM3245 10781c-3-5-2-12 3-15s9 1 9 9c0 17-3 19-12 6zM7812 10765c0-16 2-22 5-12 2 9 2 23 0 30-3 6-5-1-5-18zM6088 10773c12-2 30-2 40 0 9 3-1 5-23 4-22 0-30-2-17-4zM6158 10773c7-3 16-2 19 1 4 3-2 6-13 5-11 0-14-3-6-6zM6348 10773c6-2 18-2 25 0 6 3 1 5-13 5s-19-2-12-5zM6588 10763c6-2 18-2 25 0 6 3 1 5-13 5s-19-2-12-5zM6708 10753c7-3 16-2 19 1 4 3-2 6-13 5-11 0-14-3-6-6zM5598 10733c7-3 16-2 19 1 4 3-2 6-13 5-11 0-14-3-6-6zM8007 10729c7-7 15-10 18-7s-2 9-12 12c-14 6-15 5-6-5zM4200 10681c0-6 4-13 10-16s7 1 4 9c-7 18-14 21-14 7zM5694 10682c3-6-2-13-11-15-14-4-13-5 5-6 23-1 30 13 10 25-6 4-8 3-4-4zM4782 10655c15-16 29-27 31-24 3 2-10 15-27 28l-31 24 27-28zM6800 10676c0-2 8-10 18-17 15-13 16-12 3 4s-21 21-21 13zM4449 10653c-13-16-12-17 4-4s21 21 13 21c-2 0-10-8-17-17zM6108 10663c6-2 18-2 25 0 6 3 1 5-13 5s-19-2-12-5zM5518 10653c7-3 16-2 19 1 4 3-2 6-13 5-11 0-14-3-6-6zM6258 10653c7-3 16-2 19 1 4 3-2 6-13 5-11 0-14-3-6-6zM9705 10618l-40-43 43 40c39 36 47 45 39 45-2 0-21-19-42-42zM5408 10643c7-3 16-2 19 1 4 3-2 6-13 5-11 0-14-3-6-6zM6388 10643c7-3 16-2 19 1 4 3-2 6-13 5-11 0-14-3-6-6zM5318 10633c7-3 16-2 19 1 4 3-2 6-13 5-11 0-14-3-6-6zM6928 10623c6-2 18-2 25 0 6 3 1 5-13 5s-19-2-12-5zM6628 10613c7-3 16-2 19 1 4 3-2 6-13 5-11 0-14-3-6-6zM6158 10593c7-3 16-2 19 1 4 3-2 6-13 5-11 0-14-3-6-6zM6308 10583c7-3 16-2 19 1 4 3-2 6-13 5-11 0-14-3-6-6zM4211 10554c0-11 3-14 6-6 3 7 2 16-1 19-3 4-6-2-5-13zM5443 10553c9-2 23-2 30 0 6 3-1 5-18 5-16 0-22-2-12-5zM6578 10553c7-3 16-2 19 1 4 3-2 6-13 5-11 0-14-3-6-6zM3101 10524c0-11 3-14 6-6 3 7 2 16-1 19-3 4-6-2-5-13zM9200 10526c0-2 8-10 18-17 15-13 16-12 3 4s-21 21-21 13zM9780 10511c0-11 4-22 9-25 4-3 6 6 3 19-5 30-12 33-12 6zM5304 10488l-29-33 33 29c30 28 37 36 29 36-2 0-16-15-33-32zM9100 10516c0-2 8-10 18-17 15-13 16-12 3 4s-21 21-21 13zM5590 10506c0-2 8-10 18-17 15-13 16-12 3 4s-21 21-21 13zM10269 10493c-13-16-12-17 4-4s21 21 13 21c-2 0-10-8-17-17zM6927 10489c7-7 15-10 18-7s-2 9-12 12c-14 6-15 5-6-5zM9360 10496c0-2 8-10 18-17 15-13 16-12 3 4s-21 21-21 13zM6960 10486c0-2 7-7 16-10 8-3 12-2 9 4-6 10-25 14-25 6zM3155 10400c10-11 20-20 23-20s-3 9-13 20-20 20-23 20 3-9 13-20zM3696 10407c3-10 9-15 12-12s0 11-7 18c-10 9-11 8-5-6zM6679 10403c-13-16-12-17 4-4s21 21 13 21c-2 0-10-8-17-17zM2939 10383c-13-16-12-17 4-4 9 7 17 15 17 17 0 8-8 3-21-13zM10260 10366c0-2 8-10 18-17 15-13 16-12 3 4s-21 21-21 13zM10409 10353c-13-16-12-17 4-4 9 7 17 15 17 17 0 8-8 3-21-13zM2889 10343c-13-16-12-17 4-4 9 7 17 15 17 17 0 8-8 3-21-13zM4799 10343c-13-16-12-17 4-4 9 7 17 15 17 17 0 8-8 3-21-13zM9435 10340c10-11 20-20 23-20s-3 9-13 20-20 20-23 20 3-9 13-20zM4450 10325c13-14 26-25 28-25 3 0-5 11-18 25s-26 25-28 25c-3 0 5-11 18-25zM2959 10313c-13-16-12-17 4-4 9 7 17 15 17 17 0 8-8 3-21-13zM9190 10326c0-2 8-10 18-17 15-13 16-12 3 4s-21 21-21 13zM3945 10300c3-5 12-7 20-3 21 7 19 13-6 13-11 0-18-4-14-10zM9771 10294c0-11 3-14 6-6 3 7 2 16-1 19-3 4-6-2-5-13zM2899 10263c-13-16-12-17 4-4s21 21 13 21c-2 0-10-8-17-17zM9640 10266c0-2 8-10 18-17 15-13 16-12 3 4s-21 21-21 13zM2754 10228l-29-33 33 29c30 28 37 36 29 36-2 0-16-15-33-32zM4588 10253c7-3 16-2 19 1 4 3-2 6-13 5-11 0-14-3-6-6zM4638 10253c6-2 18-2 25 0 6 3 1 5-13 5s-19-2-12-5zM9550 10247c0-2 15-16 33-33l32-29-29 33c-28 30-36 37-36 29zM10638 10233c6-2 18-2 25 0 6 3 1 5-13 5s-19-2-12-5zM2829 10203c-13-16-12-17 4-4 9 7 17 15 17 17 0 8-8 3-21-13zM5594 10198l-19-23 23 19c21 18 27 26 19 26-2 0-12-10-23-22zM9680 10216c0-2 8-10 18-17 15-13 16-12 3 4s-21 21-21 13zM9761 10204c0-11 3-14 6-6 3 7 2 16-1 19-3 4-6-2-5-13zM3544 10188l-19-23 23 19c12 11 22 21 22 23 0 8-8 2-26-19zM7181 10194c0-11 3-14 6-6 3 7 2 16-1 19-3 4-6-2-5-13zM8230 10206c0-2 8-10 18-17 15-13 16-12 3 4s-21 21-21 13zM9490 10206c0-2 8-10 18-17 15-13 16-12 3 4s-21 21-21 13zM10505 10200c-3-6 1-7 9-4 18 7 21 14 7 14-6 0-13-4-16-10zM2674 10158l-29-33 33 29c30 28 37 36 29 36-2 0-16-15-33-32zM10810 10186c0-2 8-10 18-17 15-13 16-12 3 4s-21 21-21 13zM9670 10135c19-19 36-35 39-35s-10 16-29 35-36 35-39 35 10-16 29-35zM2749 10133l-24-28 28 24c25 23 32 31 24 31-2 0-14-12-28-27zM3024 10138l-19-23 23 19c21 18 27 26 19 26-2 0-12-10-23-22zM9590 10115c19-19 36-35 39-35s-10 16-29 35-36 35-39 35 10-16 29-35zM3440 10126c0-2 8-10 18-17 15-13 16-12 3 4s-21 21-21 13zM10870 10126c0-2 8-10 18-17 15-13 16-12 3 4s-21 21-21 13zM9720 10086c0-2 8-10 18-17 15-13 16-12 3 4s-21 21-21 13zM3486 10067c3-10 9-15 12-12s0 11-7 18c-10 9-11 8-5-6zM9380 10076c0-2 8-10 18-17 15-13 16-12 3 4s-21 21-21 13zM3871 10034c0-11 3-14 6-6 3 7 2 16-1 19-3 4-6-2-5-13zM8188 10033c7-3 16-2 19 1 4 3-2 6-13 5-11 0-14-3-6-6zM6650 10026c0-2 8-10 18-17 15-13 16-12 3 4s-21 21-21 13zM9350 10016c0-2 8-10 18-17 15-13 16-12 3 4s-21 21-21 13zM9470 10006c0-2 8-10 18-17 15-13 16-12 3 4s-21 21-21 13zM1820 9996c0-2 8-10 18-17 15-13 16-12 3 4s-21 21-21 13zM7089 9983c-13-16-12-17 4-4 9 7 17 15 17 17 0 8-8 3-21-13zM6690 9986c0-2 8-10 18-17 15-13 16-12 3 4s-21 21-21 13zM1439 9963c-13-16-12-17 4-4 9 7 17 15 17 17 0 8-8 3-21-13zM2941 9964c0-11 3-14 6-6 3 7 2 16-1 19-3 4-6-2-5-13zM9400 9976c0-2 8-10 18-17 15-13 16-12 3 4s-21 21-21 13zM2350 9956c0-2 8-10 18-17 15-13 16-12 3 4s-21 21-21 13zM3520 9947c0-2 15-16 33-33l32-29-29 33c-28 30-36 37-36 29zM9450 9936c0-2 8-10 18-17 15-13 16-12 3 4s-21 21-21 13zM9910 9898c24-27 45-48 47-48 8 0 0 9-44 50l-48 45 45-47zM3809 9913c-13-16-12-17 4-4 9 7 17 15 17 17 0 8-8 3-21-13zM9590 9905c13-14 26-25 28-25 3 0-5 11-18 25s-26 25-28 25c-3 0 5-11 18-25zM2891 9904c0-11 3-14 6-6 3 7 2 16-1 19-3 4-6-2-5-13zM2489 9883l-24-28 28 24c25 23 32 31 24 31-2 0-14-12-28-27zM9510 9885c13-14 26-25 28-25 3 0-5 11-18 25s-26 25-28 25c-3 0 5-11 18-25zM2941 9884c0-11 3-14 6-6 3 7 2 16-1 19-3 4-6-2-5-13zM9655 9850c10-11 20-20 23-20s-3 9-13 20-20 20-23 20 3-9 13-20zM9580 9826c0-2 8-10 18-17 15-13 16-12 3 4s-21 21-21 13zM9880 9827c0-2 15-16 33-33l32-29-29 33c-28 30-36 37-36 29zM10015 9780c10-11 20-20 23-20s-3 9-13 20-20 20-23 20 3-9 13-20zM9730 9787c0-2 15-16 33-33l32-29-29 33c-28 30-36 37-36 29zM9650 9767c0-2 15-16 33-33l32-29-29 33c-28 30-36 37-36 29zM2990 9756c0-2 8-10 18-17 15-13 16-12 3 4s-21 21-21 13zM10435 9740c10-11 20-20 23-20s-3 9-13 20-20 20-23 20 3-9 13-20zM10854 9738l-19-23 23 19c21 18 27 26 19 26-2 0-12-10-23-22zM2683 9733c9-2 25-2 35 0 9 3 1 5-18 5s-27-2-17-5zM2914 9708l-19-23 23 19c21 18 27 26 19 26-2 0-12-10-23-22zM10080 9705c13-14 26-25 28-25 3 0-5 11-18 25s-26 25-28 25c-3 0 5-11 18-25zM2289 9663l-24-28 28 24c25 23 32 31 24 31-2 0-14-12-28-27zM2854 9648l-29-33 33 29c30 28 37 36 29 36-2 0-16-15-33-32zM8900 9676c0-2 8-10 18-17 15-13 16-12 3 4s-21 21-21 13zM9510 9666c0-2 8-10 18-17 15-13 16-12 3 4s-21 21-21 13zM2909 9643c-13-16-12-17 4-4 9 7 17 15 17 17 0 8-8 3-21-13zM10608 9653c7-3 16-2 19 1 4 3-2 6-13 5-11 0-14-3-6-6zM8940 9646c0-2 8-10 18-17 15-13 16-12 3 4s-21 21-21 13zM10130 9646c0-2 8-10 18-17 15-13 16-12 3 4s-21 21-21 13zM2164 9618l-19-23 23 19c21 18 27 26 19 26-2 0-12-10-23-22zM9408 9623c12-2 30-2 40 0 9 3-1 5-23 4-22 0-30-2-17-4zM9575 9610c10-11 20-20 23-20s-3 9-13 20-20 20-23 20 3-9 13-20zM11040 9626c0-2 8-10 18-17 15-13 16-12 3 4s-21 21-21 13zM2239 9603c-13-16-12-17 4-4s21 21 13 21c-2 0-10-8-17-17zM2854 9598l-19-23 23 19c21 18 27 26 19 26-2 0-12-10-23-22zM2794 9588l-19-23 23 19c21 18 27 26 19 26-2 0-12-10-23-22zM3019 9593c-13-16-12-17 4-4 9 7 17 15 17 17 0 8-8 3-21-13zM2455 9580c10-11 20-20 23-20s-3 9-13 20-20 20-23 20 3-9 13-20zM2120 9570c-9-6-10-10-3-10 6 0 15 5 18 10 8 12 4 12-15 0zM8920 9576c0-2 8-10 18-17 15-13 16-12 3 4s-21 21-21 13zM1450 9545c13-14 26-25 28-25 3 0-5 11-18 25s-26 25-28 25c-3 0 5-11 18-25zM2794 9548l-19-23 23 19c21 18 27 26 19 26-2 0-12-10-23-22zM2659 9543c-13-16-12-17 4-4s21 21 13 21c-2 0-10-8-17-17zM9640 9556c0-2 8-10 18-17 15-13 16-12 3 4s-21 21-21 13zM859 9523l-24-28 28 24c25 23 32 31 24 31-2 0-14-12-28-27zM990 9546c0-2 7-7 16-10 8-3 12-2 9 4-6 10-25 14-25 6zM9550 9547c0-2 15-16 33-33l32-29-29 33c-28 30-36 37-36 29zM2939 9523c-13-16-12-17 4-4 9 7 17 15 17 17 0 8-8 3-21-13zM8970 9536c0-2 8-10 18-17 15-13 16-12 3 4s-21 21-21 13zM10130 9536c0-2 8-10 18-17 15-13 16-12 3 4s-21 21-21 13zM1948 9493c5-21 7-23 10-9 2 10 0 22-6 28s-7 0-4-19zM2684 9468c-23-27-24-29-3-10 14 12 28 20 31 17 2-3 5 2 5 10 0 19 2 20-33-17zM9020 9496c0-2 8-10 18-17 15-13 16-12 3 4s-21 21-21 13zM10900 9486c0-2 8-10 18-17 15-13 16-12 3 4s-21 21-21 13zM9165 9460c10-11 20-20 23-20s-3 9-13 20-20 20-23 20 3-9 13-20zM2579 9453c-13-16-12-17 4-4 9 7 17 15 17 17 0 8-8 3-21-13zM10270 9466c0-2 8-10 18-17 15-13 16-12 3 4s-21 21-21 13zM822 9435c0-16 2-22 5-12 2 9 2 23 0 30-3 6-5-1-5-18zM2834 9428l-29-33 33 29c17 17 32 31 32 33 0 8-8 1-36-29zM9095 9430c10-11 20-20 23-20s-3 9-13 20-20 20-23 20 3-9 13-20zM9715 9390c27-27 51-50 54-50s-17 23-44 50c-27 28-51 50-54 50s17-22 44-50zM10300 9426c0-2 8-10 18-17 15-13 16-12 3 4s-21 21-21 13zM2534 9398l-19-23 23 19c21 18 27 26 19 26-2 0-12-10-23-22zM9250 9385c13-14 26-25 28-25 3 0-5 11-18 25s-26 25-28 25c-3 0 5-11 18-25zM9170 9365c13-14 26-25 28-25 3 0-5 11-18 25s-26 25-28 25c-3 0 5-11 18-25zM2489 9343c-13-16-12-17 4-4 9 7 17 15 17 17 0 8-8 3-21-13zM10155 9340c10-11 20-20 23-20s-3 9-13 20-20 20-23 20 3-9 13-20zM10060 9346c0-2 8-10 18-17 15-13 16-12 3 4s-21 21-21 13zM9910 9295c19-19 36-35 39-35s-10 16-29 35-36 35-39 35 10-16 29-35zM9350 9297c0-1 35-36 78-77l77-75-75 78c-69 71-80 82-80 74zM9370 9178c97-100 110-113 110-105 0 1-48 50-107 107l-108 105 105-107zM10120 9276c0-2 8-10 18-17 15-13 16-12 3 4s-21 21-21 13zM9870 9235c19-19 36-35 39-35s-10 16-29 35-36 35-39 35 10-16 29-35zM2680 9246c0-2 8-10 18-17 15-13 16-12 3 4s-21 21-21 13zM10240 9236c0-2 8-10 18-17 15-13 16-12 3 4s-21 21-21 13zM10170 9216c0-2 8-10 18-17 15-13 16-12 3 4s-21 21-21 13zM2711 9184c0-11 3-14 6-6 3 7 2 16-1 19-3 4-6-2-5-13zM9935 9170c10-11 20-20 23-20s-3 9-13 20-20 20-23 20 3-9 13-20zM10030 9165c13-14 26-25 28-25 3 0-5 11-18 25s-26 25-28 25c-3 0 5-11 18-25zM10210 9166c0-2 8-10 18-17 15-13 16-12 3 4s-21 21-21 13zM10310 9146c0-2 8-10 18-17 15-13 16-12 3 4s-21 21-21 13zM10841 9134c0-11 3-14 6-6 3 7 2 16-1 19-3 4-6-2-5-13zM10240 9126c0-2 8-10 18-17 15-13 16-12 3 4s-21 21-21 13zM2494 9078l-19-23 23 19c21 18 27 26 19 26-2 0-12-10-23-22zM10105 9080c10-11 20-20 23-20s-3 9-13 20-20 20-23 20 3-9 13-20zM10865 9080c10-11 20-20 23-20s-3 9-13 20-20 20-23 20 3-9 13-20zM9811 9034c0-11 3-14 6-6 3 7 2 16-1 19-3 4-6-2-5-13zM10060 9026c0-2 8-10 18-17 15-13 16-12 3 4s-21 21-21 13zM2424 8998l-19-23 23 19c21 18 27 26 19 26-2 0-12-10-23-22zM1534 8988l-19-23 23 19c12 11 22 21 22 23 0 8-8 2-26-19zM9630 8997c0-2 15-16 33-33l32-29-29 33c-28 30-36 37-36 29zM9565 8970c10-11 20-20 23-20s-3 9-13 20-20 20-23 20 3-9 13-20zM10190 8976c0-2 8-10 18-17 15-13 16-12 3 4s-21 21-21 13zM2085 8950c10-11 20-20 23-20s-3 9-13 20-20 20-23 20 3-9 13-20zM2374 8938l-19-23 23 19c12 11 22 21 22 23 0 8-8 2-26-19zM9845 8940c10-11 20-20 23-20s-3 9-13 20-20 20-23 20 3-9 13-20zM10014 8938l-19-23 23 19c21 18 27 26 19 26-2 0-12-10-23-22zM10120 8956c0-2 8-10 18-17 15-13 16-12 3 4s-21 21-21 13zM10499 8943c-13-16-12-17 4-4 9 7 17 15 17 17 0 8-8 3-21-13zM1154 8918l-19-23 23 19c21 18 27 26 19 26-2 0-12-10-23-22zM9715 8900c10-11 20-20 23-20s-3 9-13 20-20 20-23 20 3-9 13-20zM9620 8906c0-2 8-10 18-17 15-13 16-12 3 4s-21 21-21 13zM2329 8883c-13-16-12-17 4-4 9 7 17 15 17 17 0 8-8 3-21-13zM10270 8876c0-2 8-10 18-17 15-13 16-12 3 4s-21 21-21 13zM9680 8836c0-2 8-10 18-17 15-13 16-12 3 4s-21 21-21 13zM10300 8836c0-2 8-10 18-17 15-13 16-12 3 4s-21 21-21 13zM10686 8828c3-5 10-6 15-3 13 9 11 12-6 12-8 0-12-4-9-9zM9790 8806c0-2 8-10 18-17 15-13 16-12 3 4s-21 21-21 13zM10330 8796c0-2 8-10 18-17 15-13 16-12 3 4s-21 21-21 13zM9720 8786c0-2 8-10 18-17 15-13 16-12 3 4s-21 21-21 13zM1930 8769c0-5 5-7 10-4 6 3 10 8 10 11 0 2-4 4-10 4-5 0-10-5-10-11zM9760 8736c0-2 8-10 18-17 15-13 16-12 3 4s-21 21-21 13zM906 8702l-19-27 24 22c12 12 21 24 18 27-2 2-13-8-23-22zM1520 8676c0-2 8-10 18-17 15-13 16-12 3 4s-21 21-21 13zM814 8598l-19-23 23 19c21 18 27 26 19 26-2 0-12-10-23-22zM9311 8584c0-11 3-14 6-6 3 7 2 16-1 19-3 4-6-2-5-13zM10939 8573c-13-16-12-17 4-4 9 7 17 15 17 17 0 8-8 3-21-13zM10696 8555c4-8 11-15 16-15 6 0 5 6-2 15-7 8-14 15-16 15s-1-7 2-15zM11204 8528l-19-23 23 19c21 18 27 26 19 26-2 0-12-10-23-22zM3828 8523c6-2 18-2 25 0 6 3 1 5-13 5s-19-2-12-5zM1428 8503c7-3 16-2 19 1 4 3-2 6-13 5-11 0-14-3-6-6zM3561 8424c0-11 3-14 6-6 3 7 2 16-1 19-3 4-6-2-5-13zM10669 8393c-13-16-12-17 4-4 9 7 17 15 17 17 0 8-8 3-21-13zM10930 8406c0-2 8-10 18-17 15-13 16-12 3 4s-21 21-21 13zM10626 8358c3-5 10-6 15-3 13 9 11 12-6 12-8 0-12-4-9-9zM1355 8320c10-11 20-20 23-20s-3 9-13 20-20 20-23 20 3-9 13-20zM1148 8283c7-3 16-2 19 1 4 3-2 6-13 5-11 0-14-3-6-6zM1290 8235c13-14 26-25 28-25 3 0-5 11-18 25s-26 25-28 25c-3 0 5-11 18-25zM3671 8214c0-11 3-14 6-6 3 7 2 16-1 19-3 4-6-2-5-13zM4133 8175c0-33 2-45 4-27s2 45 0 60-4 0-4-33zM3561 8204c0-11 3-14 6-6 3 7 2 16-1 19-3 4-6-2-5-13zM4291 8154c0-11 3-14 6-6 3 7 2 16-1 19-3 4-6-2-5-13zM3571 8124c0-11 3-14 6-6 3 7 2 16-1 19-3 4-6-2-5-13zM4292 8100c0-19 2-27 5-17 2 9 2 25 0 35-3 9-5 1-5-18zM991 8094c0-11 3-14 6-6 3 7 2 16-1 19-3 4-6-2-5-13zM802 7980c0-14 2-19 5-12 2 6 2 18 0 25-3 6-5 1-5-13zM11803 7943c9-2 25-2 35 0 9 3 1 5-18 5s-27-2-17-5zM620 7926c0-2 8-10 18-17 15-13 16-12 3 4s-21 21-21 13zM11629 7863l-34-38 38 34c20 19 37 36 37 38 0 8-8 0-41-34zM10889 7873c-13-16-12-17 4-4 9 7 17 15 17 17 0 8-8 3-21-13zM9940 7849c0-5 5-7 10-4 6 3 10 8 10 11 0 2-4 4-10 4-5 0-10-5-10-11zM7888 7833c6-2 18-2 25 0 6 3 1 5-13 5s-19-2-12-5zM7958 7833c6-2 18-2 25 0 6 3 1 5-13 5s-19-2-12-5zM1044 7808l-19-23 23 19c21 18 27 26 19 26-2 0-12-10-23-22zM1280 7821c0-6 4-13 10-16s7 1 4 9c-7 18-14 21-14 7zM2378 7803c6-2 18-2 25 0 6 3 1 5-13 5s-19-2-12-5zM2378 7763c7-3 16-2 19 1 4 3-2 6-13 5-11 0-14-3-6-6zM9986 7743c-6-14-5-15 5-6 7 7 10 15 7 18s-9-2-12-12zM2520 7741c0-6 4-13 10-16s7 1 4 9c-7 18-14 21-14 7zM4109 7723c-13-16-12-17 4-4 9 7 17 15 17 17 0 8-8 3-21-13zM11055 7730c3-5 8-10 11-10 2 0 4 5 4 10 0 6-5 10-11 10-5 0-7-4-4-10zM1030 7706c0-2 8-10 18-17 15-13 16-12 3 4s-21 21-21 13zM11060 7700c0-5 5-10 11-10 5 0 7 5 4 10-3 6-8 10-11 10-2 0-4-4-4-10zM12121 7694c0-11 3-14 6-6 3 7 2 16-1 19-3 4-6-2-5-13zM7868 7693c6-2 18-2 25 0 6 3 1 5-13 5s-19-2-12-5zM7728 7673c7-3 16-2 19 1 4 3-2 6-13 5-11 0-14-3-6-6zM11075 7660c3-5 8-10 11-10 2 0 4 5 4 10 0 6-5 10-11 10-5 0-7-4-4-10zM10131 7644c0-11 3-14 6-6 3 7 2 16-1 19-3 4-6-2-5-13zM10080 7626c0-2 8-10 18-17 15-13 16-12 3 4s-21 21-21 13zM1324 7598l-19-23 23 19c12 11 22 21 22 23 0 8-8 2-26-19zM2522 7590c0-14 2-19 5-12 2 6 2 18 0 25-3 6-5 1-5-13zM2405 7570c10-11 20-20 23-20s-3 9-13 20-20 20-23 20 3-9 13-20zM11101 7574c0-11 3-14 6-6 3 7 2 16-1 19-3 4-6-2-5-13zM1005 7470c10-11 20-20 23-20s-3 9-13 20-20 20-23 20 3-9 13-20zM12049 7463l-24-28 28 24c15 14 27 26 27 28 0 8-8 1-31-24zM11600 7477c0-2 15-16 33-33l32-29-29 33c-28 30-36 37-36 29zM8195 7420c-3-6 1-7 9-4 18 7 21 14 7 14-6 0-13-4-16-10zM8068 7393c7-3 16-2 19 1 4 3-2 6-13 5-11 0-14-3-6-6zM2938 7383c6-2 18-2 25 0 6 3 1 5-13 5s-19-2-12-5zM692 7360c0-14 2-19 5-12 2 6 2 18 0 25-3 6-5 1-5-13zM11848 7363c7-3 16-2 19 1 4 3-2 6-13 5-11 0-14-3-6-6zM4198 7323c7-3 16-2 19 1 4 3-2 6-13 5-11 0-14-3-6-6zM2818 7313c7-3 16-2 19 1 4 3-2 6-13 5-11 0-14-3-6-6zM2948 7313c7-3 16-2 19 1 4 3-2 6-13 5-11 0-14-3-6-6zM1168 7303c7-3 16-2 19 1 4 3-2 6-13 5-11 0-14-3-6-6zM11446 7213c-6-14-5-15 5-6 7 7 10 15 7 18s-9-2-12-12zM1042 7180c0-14 2-19 5-12 2 6 2 18 0 25-3 6-5 1-5-13zM6704 7178l-19-23 23 19c21 18 27 26 19 26-2 0-12-10-23-22zM11414 7168l-19-23 23 19c21 18 27 26 19 26-2 0-12-10-23-22zM7288 7173c6-2 18-2 25 0 6 3 1 5-13 5s-19-2-12-5zM11649 7103c-13-16-12-17 4-4 9 7 17 15 17 17 0 8-8 3-21-13zM1244 7088l-19-23 23 19c21 18 27 26 19 26-2 0-12-10-23-22zM1591 7074c0-11 3-14 6-6 3 7 2 16-1 19-3 4-6-2-5-13zM10834 7058l-29-33 33 29c30 28 37 36 29 36-2 0-16-15-33-32zM870 7066c0-2 8-10 18-17 15-13 16-12 3 4s-21 21-21 13zM1041 7014c0-11 3-14 6-6 3 7 2 16-1 19-3 4-6-2-5-13zM1400 6976c0-2 7-7 16-10 8-3 12-2 9 4-6 10-25 14-25 6zM11640 6976c0-2 8-10 18-17 15-13 16-12 3 4s-21 21-21 13zM11789 6963c-13-16-12-17 4-4 9 7 17 15 17 17 0 8-8 3-21-13zM1512 6950c0-14 2-19 5-12 2 6 2 18 0 25-3 6-5 1-5-13zM1031 6934c0-11 3-14 6-6 3 7 2 16-1 19-3 4-6-2-5-13zM7573 6885c0-38 2-53 4-32 2 20 2 52 0 70-2 17-4 1-4-38zM4711 6894c0-11 3-14 6-6 3 7 2 16-1 19-3 4-6-2-5-13zM1572 6880c0-14 2-19 5-12 2 6 2 18 0 25-3 6-5 1-5-13zM11135 6890c3-5 8-10 11-10 2 0 4 5 4 10 0 6-5 10-11 10-5 0-7-4-4-10zM11291 6884c0-11 3-14 6-6 3 7 2 16-1 19-3 4-6-2-5-13zM10210 6856c0-8 4-17 9-20 5-4 7 3 4 14-6 23-13 26-13 6zM10367 6819c4-13 8-18 11-10 2 7-1 18-6 23-8 8-9 4-5-13zM1081 6764c0-11 3-14 6-6 3 7 2 16-1 19-3 4-6-2-5-13zM10371 6764c0-11 3-14 6-6 3 7 2 16-1 19-3 4-6-2-5-13zM10800 6755c13-14 26-25 28-25 3 0-5 11-18 25s-26 25-28 25c-3 0 5-11 18-25zM11329 6753c-13-16-12-17 4-4 9 7 17 15 17 17 0 8-8 3-21-13zM1184 6738l-19-23 23 19c21 18 27 26 19 26-2 0-12-10-23-22zM1350 6751c0-6 4-13 10-16s7 1 4 9c-7 18-14 21-14 7zM585 6730c10-11 20-20 23-20s-3 9-13 20-20 20-23 20 3-9 13-20zM1563 6715c0-22 2-30 4-17 2 12 2 30 0 40-3 9-5-1-4-23zM899 6723c-13-16-12-17 4-4s21 21 13 21c-2 0-10-8-17-17zM1012 6720c0-14 2-19 5-12 2 6 2 18 0 25-3 6-5 1-5-13zM5678 6723c6-2 18-2 25 0 6 3 1 5-13 5s-19-2-12-5zM11312 6640c0-19 2-27 5-17 2 9 2 25 0 35-3 9-5 1-5-18zM1072 6640c0-14 2-19 5-12 2 6 2 18 0 25-3 6-5 1-5-13zM7875 6650c-3-6 1-7 9-4 18 7 21 14 7 14-6 0-13-4-16-10zM5400 6629c0-5 5-7 10-4 6 3 10 8 10 11 0 2-4 4-10 4-5 0-10-5-10-11zM1493 6560c0-41 2-58 4-37 2 20 2 54 0 75-2 20-4 3-4-38zM11388 6603c7-3 16-2 19 1 4 3-2 6-13 5-11 0-14-3-6-6zM1002 6570c0-14 2-19 5-12 2 6 2 18 0 25-3 6-5 1-5-13zM5392 6570c0-14 2-19 5-12 2 6 2 18 0 25-3 6-5 1-5-13zM10882 6555c0-16 2-22 5-12 2 9 2 23 0 30-3 6-5-1-5-18zM6952 6460c0-14 2-19 5-12 2 6 2 18 0 25-3 6-5 1-5-13zM7582 6405c0-16 2-22 5-12 2 9 2 23 0 30-3 6-5-1-5-18zM6951 6394c0-11 3-14 6-6 3 7 2 16-1 19-3 4-6-2-5-13zM6953 6325c0-27 2-38 4-22 2 15 2 37 0 50-2 12-4 0-4-28zM309 6313c-13-16-12-17 4-4 9 7 17 15 17 17 0 8-8 3-21-13zM10709 6258c4-28 6-29 9-9 2 13 0 27-5 32-6 6-7-3-4-23zM11803 6253c9-2 23-2 30 0 6 3-1 5-18 5-16 0-22-2-12-5zM300 6226c0-2 8-10 18-17 15-13 16-12 3 4s-21 21-21 13zM11454 6208l-19-23 23 19c21 18 27 26 19 26-2 0-12-10-23-22zM549 6193l-24-28 28 24c15 14 27 26 27 28 0 8-8 1-31-24zM10782 6200c0-14 2-19 5-12 2 6 2 18 0 25-3 6-5 1-5-13zM6131 6164c0-11 3-14 6-6 3 7 2 16-1 19-3 4-6-2-5-13zM8331 6154c0-11 3-14 6-6 3 7 2 16-1 19-3 4-6-2-5-13zM12372 6100c0-19 2-27 5-17 2 9 2 25 0 35-3 9-5 1-5-18zM12002 6100c0-14 2-19 5-12 2 6 2 18 0 25-3 6-5 1-5-13zM1581 6094c0-11 3-14 6-6 3 7 2 16-1 19-3 4-6-2-5-13zM11518 6073c7-3 16-2 19 1 4 3-2 6-13 5-11 0-14-3-6-6zM6150 6061c0-6 4-13 10-16s7 1 4 9c-7 18-14 21-14 7zM6341 6034c0-11 3-14 6-6 3 7 2 16-1 19-3 4-6-2-5-13zM11344 6018l-19-23 23 19c21 18 27 26 19 26-2 0-12-10-23-22zM11635 6020c10-11 20-20 23-20s-3 9-13 20-20 20-23 20 3-9 13-20zM1591 6004c0-11 3-14 6-6 3 7 2 16-1 19-3 4-6-2-5-13zM820 6006c0-2 8-10 18-17 15-13 16-12 3 4s-21 21-21 13zM11181 5994c0-11 3-14 6-6 3 7 2 16-1 19-3 4-6-2-5-13zM1312 5980c0-14 2-19 5-12 2 6 2 18 0 25-3 6-5 1-5-13zM10958 5953c7-3 16-2 19 1 4 3-2 6-13 5-11 0-14-3-6-6zM5490 5930c0-11 2-20 4-20s6 9 9 20 1 20-4 20-9-9-9-20zM10423 5923c9-2 23-2 30 0 6 3-1 5-18 5-16 0-22-2-12-5zM10540 5886c0-2 8-10 18-17 15-13 16-12 3 4s-21 21-21 13zM264 5858l-19-23 23 19c21 18 27 26 19 26-2 0-12-10-23-22zM1022 5840c0-14 2-19 5-12 2 6 2 18 0 25-3 6-5 1-5-13zM6312 5800c0-19 2-27 5-17 2 9 2 25 0 35-3 9-5 1-5-18zM8811 5814c0-11 3-14 6-6 3 7 2 16-1 19-3 4-6-2-5-13zM10689 5813c-13-16-12-17 4-4 9 7 17 15 17 17 0 8-8 3-21-13zM1261 5764c0-11 3-14 6-6 3 7 2 16-1 19-3 4-6-2-5-13zM998 5763c7-3 16-2 19 1 4 3-2 6-13 5-11 0-14-3-6-6zM11333 5705c0-22 2-30 4-17 2 12 2 30 0 40-3 9-5-1-4-23zM1101 5714c0-11 3-14 6-6 3 7 2 16-1 19-3 4-6-2-5-13zM1260 5689c0-22 4-38 8-35 8 5 4 76-4 76-2 0-4-18-4-41zM11350 5726c0-2 8-10 18-17 15-13 16-12 3 4s-21 21-21 13zM8791 5664c0-11 3-14 6-6 3 7 2 16-1 19-3 4-6-2-5-13zM10300 5676c0-2 8-10 18-17 15-13 16-12 3 4s-21 21-21 13zM10680 5676c0-2 8-10 18-17 15-13 16-12 3 4s-21 21-21 13zM10854 5658l-19-23 23 19c21 18 27 26 19 26-2 0-12-10-23-22zM6952 5610c0-19 2-27 5-17 2 9 2 25 0 35-3 9-5 1-5-18zM10701 5614c0-11 3-14 6-6 3 7 2 16-1 19-3 4-6-2-5-13zM10428 5603c6-2 18-2 25 0 6 3 1 5-13 5s-19-2-12-5zM270 5566c0-2 8-10 18-17 15-13 16-12 3 4s-21 21-21 13zM890 5566c0-2 8-10 18-17 15-13 16-12 3 4s-21 21-21 13zM6951 5554c0-11 3-14 6-6 3 7 2 16-1 19-3 4-6-2-5-13zM1202 5515c0-16 2-22 5-12 2 9 2 23 0 30-3 6-5-1-5-18zM10835 5460c10-11 20-20 23-20s-3 9-13 20-20 20-23 20 3-9 13-20zM554 5428l-19-23 23 19c21 18 27 26 19 26-2 0-12-10-23-22zM805 5430c10-11 20-20 23-20s-3 9-13 20-20 20-23 20 3-9 13-20zM1700 5431c0-6 4-13 10-16s7 1 4 9c-7 18-14 21-14 7zM2060 5365c19-19 36-35 39-35s-10 16-29 35-36 35-39 35 10-16 29-35zM10872 5375c0-16 2-22 5-12 2 9 2 23 0 30-3 6-5-1-5-18zM11140 5340c0-5 5-10 10-10 6 0 10 5 10 10 0 6-4 10-10 10-5 0-10-4-10-10zM6342 5300c0-14 2-19 5-12 2 6 2 18 0 25-3 6-5 1-5-13zM6942 5280c0-19 2-27 5-17 2 9 2 25 0 35-3 9-5 1-5-18zM11120 5260c0-5 5-10 11-10 5 0 7 5 4 10-3 6-8 10-11 10-2 0-4-4-4-10zM550 5185c13-14 26-25 28-25 3 0-5 11-18 25s-26 25-28 25c-3 0 5-11 18-25zM1301 5164c0-11 3-14 6-6 3 7 2 16-1 19-3 4-6-2-5-13zM2141 5114c0-11 3-14 6-6 3 7 2 16-1 19-3 4-6-2-5-13zM6932 5080c0-14 2-19 5-12 2 6 2 18 0 25-3 6-5 1-5-13zM10579 5068c26-30 41-36 41-16 0 6-3 8-7 5-3-4-18 3-32 15l-26 23 24-27zM760 5016c0-2 8-10 18-17 15-13 16-12 3 4s-21 21-21 13zM1655 4950c10-11 20-20 23-20s-3 9-13 20-20 20-23 20 3-9 13-20zM2059 4953c-13-16-12-17 4-4 9 7 17 15 17 17 0 8-8 3-21-13zM11261 4954c0-11 3-14 6-6 3 7 2 16-1 19-3 4-6-2-5-13zM1064 4938l-19-23 23 19c21 18 27 26 19 26-2 0-12-10-23-22zM10022 4920c0-14 2-19 5-12 2 6 2 18 0 25-3 6-5 1-5-13zM10416 4918c10-14 21-24 23-22 3 3-6 15-18 27l-24 22 19-27zM11890 4896c0-2 8-10 18-17 15-13 16-12 3 4s-21 21-21 13zM10560 4879c0-5 5-7 10-4 6 3 10 8 10 11 0 2-4 4-10 4-5 0-10-5-10-11zM10030 4876c0-2 8-10 18-17 15-13 16-12 3 4s-21 21-21 13zM10154 4858l-19-23 23 19c12 11 22 21 22 23 0 8-8 2-26-19zM708 4853c7-3 16-2 19 1 4 3-2 6-13 5-11 0-14-3-6-6zM10555 4850c3-5 8-10 11-10 2 0 4 5 4 10 0 6-5 10-11 10-5 0-7-4-4-10zM10630 4846c0-2 8-10 18-17 15-13 16-12 3 4s-21 21-21 13zM6901 4814c0-11 3-14 6-6 3 7 2 16-1 19-3 4-6-2-5-13zM1060 4695c13-14 26-25 28-25 3 0-5 11-18 25s-26 25-28 25c-3 0 5-11 18-25zM6901 4664c0-11 3-14 6-6 3 7 2 16-1 19-3 4-6-2-5-13zM990 4666c0-2 8-10 18-17 15-13 16-12 3 4s-21 21-21 13zM10259 4603l-34-38 38 34c34 33 42 41 34 41-2 0-19-17-38-37zM1852 4585c0-16 2-22 5-12 2 9 2 23 0 30-3 6-5-1-5-18zM7562 4545c0-16 2-22 5-12 2 9 2 23 0 30-3 6-5-1-5-18zM10302 4540c0-14 2-19 5-12 2 6 2 18 0 25-3 6-5 1-5-13zM11864 4508l-29-33 33 29c30 28 37 36 29 36-2 0-16-15-33-32zM11440 4526c0-2 8-10 18-17 15-13 16-12 3 4s-21 21-21 13zM10710 4506c0-2 8-10 18-17 15-13 16-12 3 4s-21 21-21 13zM2001 4463c7-12 15-20 18-17 3 2-3 12-13 22-17 16-18 16-5-5zM4978 4443c7-3 16-2 19 1 4 3-2 6-13 5-11 0-14-3-6-6zM7008 4423c7-3 16-2 19 1 4 3-2 6-13 5-11 0-14-3-6-6zM1359 4373c-13-16-12-17 4-4s21 21 13 21c-2 0-10-8-17-17zM10190 4336c0-2 8-10 18-17 15-13 16-12 3 4s-21 21-21 13zM1331 4294c0-11 3-14 6-6 3 7 2 16-1 19-3 4-6-2-5-13zM1570 4280c0-5 5-10 11-10 5 0 7 5 4 10-3 6-8 10-11 10-2 0-4-4-4-10zM10230 4286c0-2 8-10 18-17 15-13 16-12 3 4s-21 21-21 13zM999 4243l-24-28 28 24c25 23 32 31 24 31-2 0-14-12-28-27zM570 4256c0-2 8-10 18-17 15-13 16-12 3 4s-21 21-21 13zM11090 4226c0-2 7-7 16-10 8-3 12-2 9 4-6 10-25 14-25 6zM10668 4123c6-2 18-2 25 0 6 3 1 5-13 5s-19-2-12-5zM11119 4103c-13-16-12-17 4-4s21 21 13 21c-2 0-10-8-17-17zM11052 3980c0-14 2-19 5-12 2 6 2 18 0 25-3 6-5 1-5-13zM1666 3938c3-5 10-6 15-3 13 9 11 12-6 12-8 0-12-4-9-9zM10850 3896c0-2 8-10 18-17 15-13 16-12 3 4s-21 21-21 13zM10769 3803c-13-16-12-17 4-4s21 21 13 21c-2 0-10-8-17-17zM10475 3790c10-11 20-20 23-20s-3 9-13 20-20 20-23 20 3-9 13-20zM2420 3796c0-2 8-10 18-17 15-13 16-12 3 4s-21 21-21 13zM1490 3765c-13-14-22-27-19-29 2-2 14 10 27 25 29 36 24 38-8 4zM11411 3774c0-11 3-14 6-6 3 7 2 16-1 19-3 4-6-2-5-13zM2520 3776c0-2 8-10 18-17 15-13 16-12 3 4s-21 21-21 13zM1528 3733c7-3 16-2 19 1 4 3-2 6-13 5-11 0-14-3-6-6zM2560 3726c0-2 8-10 18-17 15-13 16-12 3 4s-21 21-21 13zM2490 3706c0-2 8-10 18-17 15-13 16-12 3 4s-21 21-21 13zM2615 3660c10-11 20-20 23-20s-3 9-13 20-20 20-23 20 3-9 13-20zM2530 3656c0-2 8-10 18-17 15-13 16-12 3 4s-21 21-21 13zM11130 3646c0-2 8-10 18-17 15-13 16-12 3 4s-21 21-21 13zM1781 3600c14-31 19-36 19-24 0 6-7 19-16 30-14 18-14 18-3-6zM1320 3606c0-2 8-10 18-17 15-13 16-12 3 4s-21 21-21 13zM2585 3590c10-11 20-20 23-20s-3 9-13 20-20 20-23 20 3-9 13-20zM2670 3596c0-2 8-10 18-17 15-13 16-12 3 4s-21 21-21 13zM2988 3593c7-3 16-2 19 1 4 3-2 6-13 5-11 0-14-3-6-6zM2180 3576c0-2 8-10 18-17 15-13 16-12 3 4s-21 21-21 13zM1362 3520c0-14 2-19 5-12 2 6 2 18 0 25-3 6-5 1-5-13zM2210 3536c0-2 8-10 18-17 15-13 16-12 3 4s-21 21-21 13zM2630 3536c0-2 8-10 18-17 15-13 16-12 3 4s-21 21-21 13zM2140 3516c0-2 8-10 18-17 15-13 16-12 3 4s-21 21-21 13zM2755 3500c10-11 20-20 23-20s-3 9-13 20-20 20-23 20 3-9 13-20zM10109 3493c-13-16-12-17 4-4s21 21 13 21c-2 0-10-8-17-17zM1180 3466c0-2 8-10 18-17 15-13 16-12 3 4s-21 21-21 13zM2700 3457c0-2 15-16 33-33l32-29-29 33c-28 30-36 37-36 29zM10144 3428l-19-23 23 19c12 11 22 21 22 23 0 8-8 2-26-19zM10029 3403l-34-38 38 34c34 33 42 41 34 41-2 0-19-17-38-37zM3074 3408l-19-23 23 19c21 18 27 26 19 26-2 0-12-10-23-22zM10755 3410c-3-5-1-10 4-10 6 0 11 5 11 10 0 6-2 10-4 10-3 0-8-4-11-10zM10639 3383c-13-16-12-17 4-4 9 7 17 15 17 17 0 8-8 3-21-13zM2915 3330c27-27 51-50 54-50s-17 23-44 50c-27 28-51 50-54 50s17-22 44-50zM2988 3373c6-2 18-2 25 0 6 3 1 5-13 5s-19-2-12-5zM9809 3363c-13-16-12-17 4-4s21 21 13 21c-2 0-10-8-17-17zM10569 3333l-24-28 28 24c15 14 27 26 27 28 0 8-8 1-31-24zM2375 3330c10-11 20-20 23-20s-3 9-13 20-20 20-23 20 3-9 13-20zM10970 3316c0-2 8-10 18-17 15-13 16-12 3 4s-21 21-21 13zM1710 3275c13-14 26-25 28-25 3 0-5 11-18 25s-26 25-28 25c-3 0 5-11 18-25zM10229 3283c-13-16-12-17 4-4s21 21 13 21c-2 0-10-8-17-17zM9984 3258l-29-33 33 29c17 17 32 31 32 33 0 8-8 1-36-29zM2000 3276c0-2 8-10 18-17 15-13 16-12 3 4s-21 21-21 13zM9889 3253l-24-28 28 24c15 14 27 26 27 28 0 8-8 1-31-24zM2360 3245c13-14 26-25 28-25 3 0-5 11-18 25s-26 25-28 25c-3 0 5-11 18-25zM2450 3245c13-14 26-25 28-25 3 0-5 11-18 25s-26 25-28 25c-3 0 5-11 18-25zM2030 3236c0-2 8-10 18-17 15-13 16-12 3 4s-21 21-21 13zM10269 3223c-13-16-12-17 4-4s21 21 13 21c-2 0-10-8-17-17zM2130 3216c0-2 8-10 18-17 15-13 16-12 3 4s-21 21-21 13zM9674 3198l-19-23 23 19c12 11 22 21 22 23 0 8-8 2-26-19zM9759 3193c-13-16-12-17 4-4s21 21 13 21c-2 0-10-8-17-17zM3060 3197c0-2 15-16 33-33l32-29-29 33c-28 30-36 37-36 29zM2410 3187c0-2 15-16 33-33l32-29-29 33c-28 30-36 37-36 29zM2970 3186c0-2 8-10 18-17 15-13 16-12 3 4s-21 21-21 13zM2170 3166c0-2 8-10 18-17 15-13 16-12 3 4s-21 21-21 13zM2595 3090c44-44 82-80 85-80 2 0-31 36-75 80s-82 80-85 80c-2 0 31-36 75-80zM9764 3138l-29-33 33 29c17 17 32 31 32 33 0 8-8 1-36-29zM9874 3148l-19-23 23 19c12 11 22 21 22 23 0 8-8 2-26-19zM2100 3146c0-2 8-10 18-17 15-13 16-12 3 4s-21 21-21 13zM3010 3146c0-2 8-10 18-17 15-13 16-12 3 4s-21 21-21 13zM9704 3128l-19-23 23 19c12 11 22 21 22 23 0 8-8 2-26-19zM11051 3134c0-11 3-14 6-6 3 7 2 16-1 19-3 4-6-2-5-13zM10471 3114c0-11 3-14 6-6 3 7 2 16-1 19-3 4-6-2-5-13zM9589 3103c-13-16-12-17 4-4 9 7 17 15 17 17 0 8-8 3-21-13zM9824 3098l-19-23 23 19c12 11 22 21 22 23 0 8-8 2-26-19zM2220 3106c0-2 8-10 18-17 15-13 16-12 3 4s-21 21-21 13zM3160 3106c0-2 8-10 18-17 15-13 16-12 3 4s-21 21-21 13zM10079 3093c-13-16-12-17 4-4s21 21 13 21c-2 0-10-8-17-17zM2140 3096c0-2 8-10 18-17 15-13 16-12 3 4s-21 21-21 13zM2570 3015c35-36 67-65 69-65 3 0-24 29-59 65s-67 65-69 65c-3 0 24-29 59-65zM3105 3060c10-11 20-20 23-20s-3 9-13 20-20 20-23 20 3-9 13-20zM9629 3043l-24-28 28 24c15 14 27 26 27 28 0 8-8 1-31-24zM9664 3048l-19-23 23 19c21 18 27 26 19 26-2 0-12-10-23-22zM9879 3053c-13-16-12-17 4-4 9 7 17 15 17 17 0 8-8 3-21-13zM1792 3040c0-14 2-19 5-12 2 6 2 18 0 25-3 6-5 1-5-13zM2195 3030c10-11 20-20 23-20s-3 9-13 20-20 20-23 20 3-9 13-20zM2270 3046c0-2 8-10 18-17 15-13 16-12 3 4s-21 21-21 13zM3245 3030c10-11 20-20 23-20s-3 9-13 20-20 20-23 20 3-9 13-20zM10114 3028l-19-23 23 19c12 11 22 21 22 23 0 8-8 2-26-19zM2699 3023c-13-16-12-17 4-4s21 21 13 21c-2 0-10-8-17-17zM9734 3018l-19-23 23 19c12 11 22 21 22 23 0 8-8 2-26-19zM3090 3005c13-14 26-25 28-25 3 0-5 11-18 25s-26 25-28 25c-3 0 5-11 18-25zM3170 3005c13-14 26-25 28-25 3 0-5 11-18 25s-26 25-28 25c-3 0 5-11 18-25zM9576 2991c-10-11-13-22-8-25s17 3 26 13c10 11 13 22 8 25s-17-3-26-13zm24 5c0-2-8-10-17-17-16-13-17-12-4 4s21 21 21 13zM9459 2963l-34-38 38 34c34 33 42 41 34 41-2 0-19-17-38-37zM2230 2986c0-2 8-10 18-17 15-13 16-12 3 4s-21 21-21 13zM2345 2960c10-11 20-20 23-20s-3 9-13 20-20 20-23 20 3-9 13-20zM9659 2953c-13-16-12-17 4-4s21 21 13 21c-2 0-10-8-17-17zM3340 2956c0-2 8-10 18-17 15-13 16-12 3 4s-21 21-21 13zM10550 2915c19-19 36-35 39-35s-10 16-29 35-36 35-39 35 10-16 29-35zM3270 2926c0-2 8-10 18-17 15-13 16-12 3 4s-21 21-21 13zM3380 2926c0-2 8-10 18-17 15-13 16-12 3 4s-21 21-21 13zM9389 2893l-24-28 28 24c15 14 27 26 27 28 0 8-8 1-31-24zM9599 2903c-13-16-12-17 4-4s21 21 13 21c-2 0-10-8-17-17zM2320 2885c13-14 26-25 28-25 3 0-5 11-18 25s-26 25-28 25c-3 0 5-11 18-25zM10054 2888l-19-23 23 19c12 11 22 21 22 23 0 8-8 2-26-19zM10939 2883c-13-16-12-17 4-4s21 21 13 21c-2 0-10-8-17-17zM3320 2886c0-2 8-10 18-17 15-13 16-12 3 4s-21 21-21 13zM1709 2863c-13-16-12-17 4-4 9 7 17 15 17 17 0 8-8 3-21-13zM2455 2840c21-22 41-40 44-40s-13 18-34 40-41 40-44 40 13-18 34-40zM9549 2863c-13-16-12-17 4-4s21 21 13 21c-2 0-10-8-17-17zM2140 2866c0-2 8-10 18-17 15-13 16-12 3 4s-21 21-21 13zM9869 2853c-13-16-12-17 4-4s21 21 13 21c-2 0-10-8-17-17zM3360 2856c0-2 8-10 18-17 15-13 16-12 3 4s-21 21-21 13zM10279 2823c-13-16-12-17 4-4s21 21 13 21c-2 0-10-8-17-17zM9299 2813c-13-16-12-17 4-4 9 7 17 15 17 17 0 8-8 3-21-13zM9725 2710c-66-66-117-120-115-120 3 0 59 54 125 120s117 120 115 120c-3 0-59-54-125-120zM10728 2823c7-3 16-2 19 1 4 3-2 6-13 5-11 0-14-3-6-6zM10773 2823c9-2 23-2 30 0 6 3-1 5-18 5-16 0-22-2-12-5zM1920 2805c0-8 2-15 4-15s6 7 10 15c3 8 1 15-4 15-6 0-10-7-10-15zM2260 2816c0-2 8-10 18-17 15-13 16-12 3 4s-21 21-21 13zM2430 2765c19-19 36-35 39-35s-10 16-29 35-36 35-39 35 10-16 29-35zM9810 2695c-41-41-72-75-69-75 2 0 38 34 79 75s72 75 69 75c-2 0-38-34-79-75zM9199 2723c-13-16-12-17 4-4s21 21 13 21c-2 0-10-8-17-17zM2330 2726c0-2 8-10 18-17 15-13 16-12 3 4s-21 21-21 13zM9128 2723c7-3 16-2 19 1 4 3-2 6-13 5-11 0-14-3-6-6zM11699 2713c-13-16-12-17 4-4s21 21 13 21c-2 0-10-8-17-17zM2510 2685c19-19 36-35 39-35s-10 16-29 35-36 35-39 35 10-16 29-35zM2260 2706c0-2 8-10 18-17 15-13 16-12 3 4s-21 21-21 13zM9039 2693c-13-16-12-17 4-4s21 21 13 21c-2 0-10-8-17-17zM10174 2688l-19-23 23 19c12 11 22 21 22 23 0 8-8 2-26-19zM2590 2605c19-19 36-35 39-35s-10 16-29 35-36 35-39 35 10-16 29-35zM3120 2626c0-2 8-10 18-17 15-13 16-12 3 4s-21 21-21 13zM2340 2606c0-2 8-10 18-17 15-13 16-12 3 4s-21 21-21 13zM2430 2606c0-2 8-10 18-17 15-13 16-12 3 4s-21 21-21 13zM11652 2580c0-19 2-27 5-17 2 9 2 25 0 35-3 9-5 1-5-18zM12021 2584c0-11 3-14 6-6 3 7 2 16-1 19-3 4-6-2-5-13zM10074 2568l-19-23 23 19c12 11 22 21 22 23 0 8-8 2-26-19zM1959 2563c-13-16-12-17 4-4s21 21 13 21c-2 0-10-8-17-17zM1931 2544c0-11 3-14 6-6 3 7 2 16-1 19-3 4-6-2-5-13zM9204 2538l-19-23 23 19c12 11 22 21 22 23 0 8-8 2-26-19zM9544 2538l-19-23 23 19c21 18 27 26 19 26-2 0-12-10-23-22zM2405 2530c10-11 20-20 23-20s-3 9-13 20-20 20-23 20 3-9 13-20zM9624 2518l-29-33 33 29c17 17 32 31 32 33 0 8-8 1-36-29zM2505 2520c10-11 20-20 23-20s-3 9-13 20-20 20-23 20 3-9 13-20zM4180 2536c0-2 8-10 18-17 15-13 16-12 3 4s-21 21-21 13zM2790 2523c0-6 8-17 18-24 16-13 16-13 2 6-8 11-16 22-17 24-2 2-3 0-3-6zM10180 2516c0-2 9-6 20-9s18-1 14 4c-5 9-34 13-34 5zM2715 2490c10-11 20-20 23-20s-3 9-13 20-20 20-23 20 3-9 13-20zM9999 2483l-24-28 28 24c15 14 27 26 27 28 0 8-8 1-31-24zM3180 2496c0-2 8-10 18-17 15-13 16-12 3 4s-21 21-21 13zM9464 2468l-19-23 23 19c21 18 27 26 19 26-2 0-12-10-23-22zM10829 2473c-13-16-12-17 4-4s21 21 13 21c-2 0-10-8-17-17zM11700 2455c13-14 26-25 28-25 3 0-5 11-18 25s-26 25-28 25c-3 0 5-11 18-25zM2480 2445c13-14 26-25 28-25 3 0-5 11-18 25s-26 25-28 25c-3 0 5-11 18-25zM2870 2445c13-14 26-25 28-25 3 0-5 11-18 25s-26 25-28 25c-3 0 5-11 18-25zM10707 2459c7-7 15-10 18-7s-2 9-12 12c-14 6-15 5-6-5zM11969 2453c-13-16-12-17 4-4s21 21 13 21c-2 0-10-8-17-17zM2570 2447c0-2 15-16 33-33l32-29-29 33c-28 30-36 37-36 29zM2790 2425c13-14 26-25 28-25 3 0-5 11-18 25s-26 25-28 25c-3 0 5-11 18-25zM10748 2443c6-2 18-2 25 0 6 3 1 5-13 5s-19-2-12-5zM9650 2436c0-2 8-10 18-17 15-13 16-12 3 4s-21 21-21 13zM10024 2408l-29-33 33 29c17 17 32 31 32 33 0 8-8 1-36-29zM9939 2413c-13-16-12-17 4-4s21 21 13 21c-2 0-10-8-17-17zM2920 2406c0-2 8-10 18-17 15-13 16-12 3 4s-21 21-21 13zM2855 2370c10-11 20-20 23-20s-3 9-13 20-20 20-23 20 3-9 13-20zM9299 2363c-13-16-12-17 4-4s21 21 13 21c-2 0-10-8-17-17zM2605 2310c33-33 62-60 64-60 3 0-21 27-54 60s-62 60-64 60c-3 0 21-27 54-60zM2970 2366c0-2 8-10 18-17 15-13 16-12 3 4s-21 21-21 13zM9969 2353c-13-16-12-17 4-4s21 21 13 21c-2 0-10-8-17-17zM9691 2344c0-11 3-14 6-6 3 7 2 16-1 19-3 4-6-2-5-13zM9869 2343c-13-16-12-17 4-4s21 21 13 21c-2 0-10-8-17-17zM2915 2320c10-11 20-20 23-20s-3 9-13 20-20 20-23 20 3-9 13-20zM3020 2326c0-2 8-10 18-17 15-13 16-12 3 4s-21 21-21 13zM5070 2316c0-2 8-10 18-17 15-13 16-12 3 4s-21 21-21 13zM9259 2303c-13-16-12-17 4-4s21 21 13 21c-2 0-10-8-17-17zM2154 2288l-19-23 23 19c21 18 27 26 19 26-2 0-12-10-23-22zM10214 2258l-19-23 23 19c21 18 27 26 19 26-2 0-12-10-23-22zM3000 2256c0-2 8-10 18-17 15-13 16-12 3 4s-21 21-21 13zM5120 2256c0-2 8-10 18-17 15-13 16-12 3 4s-21 21-21 13zM9500 2249c0-5 5-7 10-4 6 3 10 8 10 11 0 2-4 4-10 4-5 0-10-5-10-11zM9739 2213l-34-38 38 34c34 33 42 41 34 41-2 0-19-17-38-37zM9573 2233c9-2 23-2 30 0 6 3-1 5-18 5-16 0-22-2-12-5zM2745 2170c33-33 62-60 64-60 3 0-21 27-54 60s-62 60-64 60c-3 0 21-27 54-60zM8464 2214c-18-14-18-14 6-3 31 14 36 19 24 19-6 0-19-7-30-16zM9270 2226c0-2 8-10 18-17 15-13 16-12 3 4s-21 21-21 13zM3180 2206c0-2 8-10 18-17 15-13 16-12 3 4s-21 21-21 13zM5160 2206c0-2 8-10 18-17 15-13 16-12 3 4s-21 21-21 13zM3080 2196c0-2 8-10 18-17 15-13 16-12 3 4s-21 21-21 13zM2865 2150c21-22 41-40 44-40s-13 18-34 40-41 40-44 40 13-18 34-40zM2198 2173c6-2 18-2 25 0 6 3 1 5-13 5s-19-2-12-5zM3710 2156c0-2 7-7 16-10 8-3 12-2 9 4-6 10-25 14-25 6zM6959 2133c-13-16-12-17 4-4s21 21 13 21c-2 0-10-8-17-17zM7340 2125c13-14 26-25 28-25 3 0-5 11-18 25s-26 25-28 25c-3 0 5-11 18-25zM2988 2123c6-2 18-2 25 0 6 3 1 5-13 5s-19-2-12-5zM9614 2098l-19-23 23 19c21 18 27 26 19 26-2 0-12-10-23-22zM9695 2078l-40-43 43 40c39 36 47 45 39 45-2 0-21-19-42-42zM10058 2093c7-3 16-2 19 1 4 3-2 6-13 5-11 0-14-3-6-6zM1375 2069c-4-6-4-13-1-16 3-4 6 0 6 7 0 9 7 7 23-6l22-19-19 23c-22 25-23 26-31 11zM2846 2063c-6-14-5-15 5-6 7 7 10 15 7 18s-9-2-12-12zM10712 2050c0-19 2-27 5-17 2 9 2 25 0 35-3 9-5 1-5-18zM4788 2053c7-3 16-2 19 1 4 3-2 6-13 5-11 0-14-3-6-6zM4860 2036c0-2 8-10 18-17 15-13 16-12 3 4s-21 21-21 13zM9519 2013l-24-28 28 24c15 14 27 26 27 28 0 8-8 1-31-24zM1437 2009c7-7 15-10 18-7s-2 9-12 12c-14 6-15 5-6-5zM9594 1988l-19-23 23 19c21 18 27 26 19 26-2 0-12-10-23-22zM4682 1945c0-16 2-22 5-12 2 9 2 23 0 30-3 6-5-1-5-18zM5508 1963c7-3 16-2 19 1 4 3-2 6-13 5-11 0-14-3-6-6zM5043 1925c0-22 2-30 4-17 2 12 2 30 0 40-3 9-5-1-4-23zM3202 1925c0-16 2-22 5-12 2 9 2 23 0 30-3 6-5-1-5-18zM9384 1928l-19-23 23 19c21 18 27 26 19 26-2 0-12-10-23-22zM10129 1923c-13-17-13-17 6-3 11 8 22 16 24 17 2 2 0 3-6 3s-17-8-24-17zM5129 1893l-34-38 38 34c34 33 42 41 34 41-2 0-19-17-38-37zM5998 1893c7-3 16-2 19 1 4 3-2 6-13 5-11 0-14-3-6-6zM1362 1865c0-16 2-22 5-12 2 9 2 23 0 30-3 6-5-1-5-18zM6128 1883c7-3 16-2 19 1 4 3-2 6-13 5-11 0-14-3-6-6zM6803 1883c9-2 23-2 30 0 6 3-1 5-18 5-16 0-22-2-12-5zM2330 1876c0-2 8-10 18-17 15-13 16-12 3 4s-21 21-21 13zM6383 1873c9-2 23-2 30 0 6 3-1 5-18 5-16 0-22-2-12-5zM6543 1873c9-2 23-2 30 0 6 3-1 5-18 5-16 0-22-2-12-5zM6628 1873c7-3 16-2 19 1 4 3-2 6-13 5-11 0-14-3-6-6zM9582 1855c0-16 2-22 5-12 2 9 2 23 0 30-3 6-5-1-5-18zM5698 1863c7-3 16-2 19 1 4 3-2 6-13 5-11 0-14-3-6-6zM10200 1856c0-2 8-10 18-17 15-13 16-12 3 4s-21 21-21 13zM3230 1846c0-2 8-10 18-17 15-13 16-12 3 4s-21 21-21 13zM4788 1833c6-2 18-2 25 0 6 3 1 5-13 5s-19-2-12-5zM10589 1813c-13-16-12-17 4-4s21 21 13 21c-2 0-10-8-17-17zM5886 1811c-3-4 7-19 22-32l27-24-23 26c-12 14-19 29-15 32 3 4 4 7 0 7-3 0-8-4-11-9zM6173 1813c9-2 23-2 30 0 6 3-1 5-18 5-16 0-22-2-12-5zM9339 1783c-13-16-12-17 4-4s21 21 13 21c-2 0-10-8-17-17zM9549 1773c-13-16-12-17 4-4s21 21 13 21c-2 0-10-8-17-17zM8664 1755c-4-8-11-12-17-8s-7 1-2-7c6-10 11-10 20 3 7 9 16 13 20 9 5-4 5-1 1 6-9 16-15 15-22-3zM9299 1753c-13-16-12-17 4-4 9 7 17 15 17 17 0 8-8 3-21-13zM8920 1705c13-14 26-25 28-25 3 0-5 11-18 25s-26 25-28 25c-3 0 5-11 18-25zM2263 1713c9-2 25-2 35 0 9 3 1 5-18 5s-27-2-17-5zM6943 1704c14-17 15-23 5-27-9-4-9-6-1-6 22-2 23 16 0 35l-22 19 18-21zM9189 1673c-13-16-12-17 4-4s21 21 13 21c-2 0-10-8-17-17zM5428 1653c7-3 16-2 19 1 4 3-2 6-13 5-11 0-14-3-6-6zM6658 1633c7-3 16-2 19 1 4 3-2 6-13 5-11 0-14-3-6-6zM7235 1630c-3-6 1-7 9-4 18 7 21 14 7 14-6 0-13-4-16-10zM6418 1613c7-3 16-2 19 1 4 3-2 6-13 5-11 0-14-3-6-6zM2669 1593c-13-16-12-17 4-4s21 21 13 21c-2 0-10-8-17-17zM6103 1603c9-2 25-2 35 0 9 3 1 5-18 5s-27-2-17-5zM7769 1593c-13-16-12-17 4-4s21 21 13 21c-2 0-10-8-17-17zM8193 1593c4-3-3-18-15-32l-23-26 27 24c24 21 29 41 11 41-4 0-3-3 0-7zM6786 1578c3-4 11-5 19-1 21 7 19 12-4 10-11 0-18-5-15-9zM6718 1573c7-3 16-2 19 1 4 3-2 6-13 5-11 0-14-3-6-6zM6940 1556c0-2 8-10 18-17 15-13 16-12 3 4s-21 21-21 13zM6368 1543c6-2 18-2 25 0 6 3 1 5-13 5s-19-2-12-5zM2260 1536c0-2 8-10 18-17 15-13 16-12 3 4s-21 21-21 13zM5894 1488l-19-23 23 19c21 18 27 26 19 26-2 0-12-10-23-22zM5590 1496c0-2 8-10 18-17 15-13 16-12 3 4s-21 21-21 13zM7899 1473c-13-16-12-17 4-4s21 21 13 21c-2 0-10-8-17-17zM2101 1454c0-11 3-14 6-6 3 7 2 16-1 19-3 4-6-2-5-13zM7828 1443c7-3 16-2 19 1 4 3-2 6-13 5-11 0-14-3-6-6zM2738 1423c6-2 18-2 25 0 6 3 1 5-13 5s-19-2-12-5zM6955 1409c-4-6-5-12-2-15 2-3 7 2 10 11 7 17 1 20-8 4zM2120 1396c0-2 8-10 18-17 15-13 16-12 3 4s-21 21-21 13zM2240 1370c-9-6-10-10-3-10 6 0 15 5 18 10 8 12 4 12-15 0zM5161 1360c-13-11-19-20-14-20 6 0 18 9 28 20 23 25 17 25-14 0zM6860 1355c0-7 30-13 34-7 3 4-4 9-15 9-10 1-19 0-19-2zM9298 1353c6-2 18-2 25 0 6 3 1 5-13 5s-19-2-12-5zM8748 1343c7-3 16-2 19 1 4 3-2 6-13 5-11 0-14-3-6-6zM8450 1320c-9-6-10-10-3-10 6 0 15 5 18 10 8 12 4 12-15 0zM8565 1300c-3-6 1-7 9-4 18 7 21 14 7 14-6 0-13-4-16-10zM6808 1283c7-3 16-2 19 1 4 3-2 6-13 5-11 0-14-3-6-6zM9180 1276c0-8 4-17 9-20 5-4 7 3 4 14-6 23-13 26-13 6zM3490 1276c0-2 8-10 18-17 15-13 16-12 3 4s-21 21-21 13zM5678 1263c7-3 16-2 19 1 4 3-2 6-13 5-11 0-14-3-6-6zM5808 1253c7-3 16-2 19 1 4 3-2 6-13 5-11 0-14-3-6-6zM6498 1253c7-3 16-2 19 1 4 3-2 6-13 5-11 0-14-3-6-6zM4958 1243c7-3 16-2 19 1 4 3-2 6-13 5-11 0-14-3-6-6zM6028 1243c6-2 18-2 25 0 6 3 1 5-13 5s-19-2-12-5zM6258 1243c7-3 16-2 19 1 4 3-2 6-13 5-11 0-14-3-6-6zM6298 1243c7-3 16-2 19 1 4 3-2 6-13 5-11 0-14-3-6-6zM5356 1223c-6-14-5-15 5-6 7 7 10 15 7 18s-9-2-12-12zM3700 1205c13-14 26-25 28-25 3 0-5 11-18 25s-26 25-28 25c-3 0 5-11 18-25zM4109 1203c-13-16-12-17 4-4s21 21 13 21c-2 0-10-8-17-17zM3532 1190c0-14 2-19 5-12 2 6 2 18 0 25-3 6-5 1-5-13zM4844 1188l-19-23 23 19c21 18 27 26 19 26-2 0-12-10-23-22zM6698 1203c7-3 16-2 19 1 4 3-2 6-13 5-11 0-14-3-6-6zM7683 1175c0-22 2-30 4-17 2 12 2 30 0 40-3 9-5-1-4-23zM5329 1183c-13-16-12-17 4-4 9 7 17 15 17 17 0 8-8 3-21-13zM5718 1193c7-3 16-2 19 1 4 3-2 6-13 5-11 0-14-3-6-6zM7332 1180c0-14 2-19 5-12 2 6 2 18 0 25-3 6-5 1-5-13zM5848 1183c6-2 18-2 25 0 6 3 1 5-13 5s-19-2-12-5zM6453 1183c9-2 23-2 30 0 6 3-1 5-18 5-16 0-22-2-12-5zM5243 1153c9-2 23-2 30 0 6 3-1 5-18 5-16 0-22-2-12-5zM3868 1123c7-3 16-2 19 1 4 3-2 6-13 5-11 0-14-3-6-6zM7938 1123c7-3 16-2 19 1 4 3-2 6-13 5-11 0-14-3-6-6zM8957 1123c-13-12-7-23 11-22 10 0 12 3 4 6-6 2-10 9-6 14 6 10 0 12-9 2zM8692 1090c0-14 2-19 5-12 2 6 2 18 0 25-3 6-5 1-5-13zM9090 1106c0-2 8-10 18-17 15-13 16-12 3 4s-21 21-21 13zM5881 1087c2-1 15-11 29-22l25-20-19 23c-11 12-24 22-29 22-6 0-8-1-6-3zM7209 1073c-13-16-12-17 4-4s21 21 13 21c-2 0-10-8-17-17zM7639 1063c-13-16-12-17 4-4 9 7 17 15 17 17 0 8-8 3-21-13zM6895 1050c10-11 20-20 23-20s-3 9-13 20-20 20-23 20 3-9 13-20zM8011 1044c0-11 3-14 6-6 3 7 2 16-1 19-3 4-6-2-5-13zM9130 1056c0-2 8-10 18-17 15-13 16-12 3 4s-21 21-21 13zM4362 1020c0-14 2-19 5-12 2 6 2 18 0 25-3 6-5 1-5-13zM4410 1036c0-2 8-10 18-17 15-13 16-12 3 4s-21 21-21 13zM8859 1023c-13-16-12-17 4-4s21 21 13 21c-2 0-10-8-17-17zM5200 960c-9-6-10-10-3-10 6 0 15 5 18 10 8 12 4 12-15 0zM5530 936c0-2 8-10 18-17 15-13 16-12 3 4s-21 21-21 13zM8152 910c0-14 2-19 5-12 2 6 2 18 0 25-3 6-5 1-5-13zM4845 880c10-11 20-20 23-20s-3 9-13 20-20 20-23 20 3-9 13-20zM7970 869c0-5 5-7 10-4 6 3 10 8 10 11 0 2-4 4-10 4-5 0-10-5-10-11zM5598 863c7-3 16-2 19 1 4 3-2 6-13 5-11 0-14-3-6-6zM6948 863c7-3 16-2 19 1 4 3-2 6-13 5-11 0-14-3-6-6zM5090 850c-9-6-10-10-3-10 6 0 15 5 18 10 8 12 4 12-15 0zM6778 843c7-3 16-2 19 1 4 3-2 6-13 5-11 0-14-3-6-6zM7390 846c0-2 8-10 18-17 15-13 16-12 3 4s-21 21-21 13zM5878 833c7-3 16-2 19 1 4 3-2 6-13 5-11 0-14-3-6-6zM6668 833c6-2 18-2 25 0 6 3 1 5-13 5s-19-2-12-5zM4978 823c7-3 16-2 19 1 4 3-2 6-13 5-11 0-14-3-6-6zM6503 823c9-2 23-2 30 0 6 3-1 5-18 5-16 0-22-2-12-5zM4415 768l-40-43 45 40c25 22 47 41 49 43 2 1 0 2-5 2-6 0-28-19-49-42zM7003 803c4-3 1-13-6-22-11-14-10-14 6-2 20 15 22 31 5 31-6 0-8-3-5-7zM4352 780c0-14 2-19 5-12 2 6 2 18 0 25-3 6-5 1-5-13zM5698 783c7-3 16-2 19 1 4 3-2 6-13 5-11 0-14-3-6-6zM7450 786c0-2 8-10 18-17 15-13 16-12 3 4s-21 21-21 13zM5798 773c7-3 16-2 19 1 4 3-2 6-13 5-11 0-14-3-6-6zM5918 763c6-2 18-2 25 0 6 3 1 5-13 5s-19-2-12-5zM6098 753c6-2 18-2 25 0 6 3 1 5-13 5s-19-2-12-5zM6448 753c6-2 18-2 25 0 6 3 1 5-13 5s-19-2-12-5zM6554 708l-19-23 23 19c12 11 22 21 22 23 0 8-8 2-26-19zM6680 726c0-2 8-10 18-17 15-13 16-12 3 4s-21 21-21 13zM5524 688l-19-23 23 19c12 11 22 21 22 23 0 8-8 2-26-19zM8100 666c0-2 8-10 18-17 15-13 16-12 3 4s-21 21-21 13zM5689 573c-13-16-12-17 4-4 9 7 17 15 17 17 0 8-8 3-21-13zM6613 543c9-2 23-2 30 0 6 3-1 5-18 5-16 0-22-2-12-5zM5400 516c0-2 8-10 18-17 15-13 16-12 3 4s-21 21-21 13zM7429 393l-24-28 28 24c25 23 32 31 24 31-2 0-14-12-28-27zM7020 396c0-2 8-10 18-17 15-13 16-12 3 4s-21 21-21 13zM4931 324c0-11 3-14 6-6 3 7 2 16-1 19-3 4-6-2-5-13zM7178 313c7-3 16-2 19 1 4 3-2 6-13 5-11 0-14-3-6-6zM5020 76c0-2 8-10 18-17 15-13 16-12 3 4s-21 21-21 13zM5389 53c-13-16-12-17 4-4s21 21 13 21c-2 0-10-8-17-17z"/></g></svg><svg id="facebook" data-name="Layer 1" width="23.23" height="44.01" viewBox="-1 -1 23.23 44.01" x="1083.78" y="2002" xmlns="http://www.w3.org/2000/svg"><defs><style>.dcls-1{fill:#fff}</style></defs><title>facebook</title><path class="dcls-1" d="M21.23.31V7H17.4a3.55 3.55 0 0 0-2.85.91 4.26 4.26 0 0 0-.74 2.72v4.77H21l-1 7.47h-6.19V42H6.27V22.85H0v-7.47h6.27V9.85q0-4.69 2.55-7.28A9 9 0 0 1 15.63 0a39.57 39.57 0 0 1 5.6.31z"/></svg><svg id="fire" data-name="Layer 1" width="58" height="66" viewBox="-1 -1 58 66" x="778" y="2002" xmlns="http://www.w3.org/2000/svg"><defs><style>.ecls-1{fill:#d4953d}</style></defs><title>Untitled-2</title><path class="ecls-1" d="M16 0C24 16 0 24 0 40s16 24 16 24C8.16 48.16 32 40 32 24S16 0 16 0zm24 24c8 16-16 24-16 40h24c3.2 0 8-4 8-16 0-16-16-24-16-24z"/></svg><svg id="globe" data-name="Layer 1" width="66" height="66" viewBox="-1 -1 66 66" x="643.33" y="2070.67" xmlns="http://www.w3.org/2000/svg"><defs><style>.fcls-1{fill:#d4953f}</style></defs><title>globe</title><path class="fcls-1" d="M32 0a32 32 0 1 0 32 32A32 32 0 0 0 32 0zm0 8a23.75 23.75 0 0 1 7.52 1.52c-1.68 1.6-3.6 3-3.28 4.48s5.52 1 5.52 4c0 2.16-3.36 2.8-1 5.28 2.8 2.8-5.12 7.84-5.28 11.52-.24 6.64 6.72 7.76 12.24 7.76 3.36 0 4.24 1.6 4 3.52a24.07 24.07 0 0 1-19.76 10 22.94 22.94 0 0 1-8.48-1.76c1.76-3.52-2.24-10.48-6-12.72-1.84-1.84-5.76-1.12-8-2a23.49 23.49 0 0 1-1.52-6.72 1.42 1.42 0 0 1 1.28-.72c1.52 0 3.6 3 4.72 2.72 1.4-.32-5.96-10.48-2.52-12.48 1.6-1 4.8 3.12 3.76-1.28-1-4.08 2.88-2.24 5.28-3.28 2.08-.88 3.6-3.28 1-4.72a8.55 8.55 0 0 1-1.76-1.52A23.75 23.75 0 0 1 32 8.08V8zm18.48 8.72A26.46 26.46 0 0 1 54 22.48v.24a11.78 11.78 0 0 1-1.76 1.76C50 26.72 49.68 22.8 48.72 22c-1-1-4.8.16-5.28-1-.56-1.48 4-3.4 7.04-4.28z"/></svg><svg id="instagram" data-name="Layer 1" width="44.01" height="44.01" viewBox="-1 -1 44.01 44.01" x="1107.01" y="2002" xmlns="http://www.w3.org/2000/svg"><defs><style>.gcls-1{fill:#fff}</style></defs><title>instagram</title><path class="gcls-1" d="M37.25 35.49V17.77h-3.69a11.77 11.77 0 0 1 .57 3.58 12.12 12.12 0 0 1-1.75 6.36 12.76 12.76 0 0 1-4.76 4.59 13.13 13.13 0 0 1-6.56 1.7 12.78 12.78 0 0 1-9.19-3.71 12 12 0 0 1-3.83-9 11.77 11.77 0 0 1 .49-3.56H4.68v17.76a1.63 1.63 0 0 0 1.6 1.67h29.3a1.63 1.63 0 0 0 1.17-.47 1.59 1.59 0 0 0 .5-1.2zm-7.77-14.57A7.75 7.75 0 0 0 27 15.14a8.28 8.28 0 0 0-6-2.4 8.25 8.25 0 0 0-5.91 2.39 7.75 7.75 0 0 0-2.47 5.78 7.75 7.75 0 0 0 2.47 5.79A8.25 8.25 0 0 0 21 29.1a8.28 8.28 0 0 0 6-2.4 7.75 7.75 0 0 0 2.48-5.78zm7.76-9.84V6.56a1.84 1.84 0 0 0-.54-1.31 1.8 1.8 0 0 0-1.31-.56h-4.78a1.8 1.8 0 0 0-1.31.56 1.84 1.84 0 0 0-.54 1.31v4.52A1.87 1.87 0 0 0 30.6 13h4.8a1.87 1.87 0 0 0 1.85-1.89zM42 5.39v31.23A5.41 5.41 0 0 1 36.62 42H5.39a5.19 5.19 0 0 1-3.8-1.59A5.19 5.19 0 0 1 0 36.62V5.39a5.19 5.19 0 0 1 1.59-3.8A5.19 5.19 0 0 1 5.39 0h31.23a5.19 5.19 0 0 1 3.8 1.59A5.19 5.19 0 0 1 42 5.39z"/></svg><svg version="1" width="643.33" height="408.67" viewBox="-1 -1 483 307" id="logo" y="2002" xmlns="http://www.w3.org/2000/svg"><path d="M192.4 212.2l-1.9 2.3 2.3-1.9c2.1-1.8 2.7-2.6 1.9-2.6-.2 0-1.2 1-2.3 2.2z"/></svg><svg id="mail" data-name="Layer 1" width="66" height="50" viewBox="-1 -1 66 50" x="964" y="2002" xmlns="http://www.w3.org/2000/svg"><defs><style>.icls-1{fill:#2f5572}</style></defs><title>mail</title><path class="icls-1" d="M0 0v8l32 16L64 8V0H0zm0 16v32h64V16L32 32z"/></svg><svg id="rain" data-name="Layer 1" width="66" height="66" viewBox="-1 -1 66 66" x="712" y="2002" xmlns="http://www.w3.org/2000/svg"><defs><style>.jcls-1{fill:#d4953f}</style></defs><title>rain</title><path class="jcls-1" d="M36 0a20.42 20.42 0 0 0-20 16A16 16 0 0 0 0 32a15.4 15.4 0 0 0 4.27 10.72A11.88 11.88 0 0 1 12 40a10.51 10.51 0 0 1 4.47 1A12 12 0 0 1 28 32a12.06 12.06 0 0 1 11.51 9A11.84 11.84 0 0 1 44 40a11.94 11.94 0 0 1 11 7.52A12.07 12.07 0 0 0 64 36c0-5.2-3.36-10.32-8-12v-4A20 20 0 0 0 36 0zm-9.27 40A4 4 0 0 0 24 44v16a4 4 0 1 0 8 0V44a4 4 0 0 0-4.71-4h-.56zm-16 8A4 4 0 0 0 8 52v8a4 4 0 1 0 8 0v-8a4 4 0 0 0-4.71-4h-.54zm32 0A4 4 0 0 0 40 52v8a4 4 0 1 0 8 0v-8a4 4 0 0 0-4.71-4h-.58z" transform="translate(-.04)"/></svg><svg id="star" data-name="Layer 1" width="66" height="66" viewBox="-1 -1 66 66" x="709.33" y="2070.67" xmlns="http://www.w3.org/2000/svg"><defs><style>.kcls-1{fill:#d4953f}</style></defs><title>star</title><path class="kcls-1" d="M32 0l-8 24H0l20 16-8 24 20-16 20 16-8-24 20-16H40z"/></svg><svg id="twitter" data-name="Layer 1" width="53.78" height="44.06" viewBox="-1 -1 53.78 44.06" x="1030" y="2002" xmlns="http://www.w3.org/2000/svg"><defs><style>.lcls-1{fill:#fff}</style></defs><title>twitter</title><path class="lcls-1" d="M51.78 5a22.23 22.23 0 0 1-5.32 5.52v1.38a30.15 30.15 0 0 1-1.25 8.53 30.81 30.81 0 0 1-3.76 8.13 32.1 32.1 0 0 1-6.06 6.92 27 27 0 0 1-8.48 4.8 31 31 0 0 1-10.62 1.8A29.47 29.47 0 0 1 0 37.29a22.71 22.71 0 0 0 2.56.13 20.78 20.78 0 0 0 13.17-4.53 10.63 10.63 0 0 1-9.92-7.36 13.45 13.45 0 0 0 2 .16 11 11 0 0 0 2.79-.36 10.44 10.44 0 0 1-6.09-3.67 10.25 10.25 0 0 1-2.41-6.75v-.13a10.52 10.52 0 0 0 4.8 1.34 10.6 10.6 0 0 1-3.45-3.78 10.34 10.34 0 0 1-1.28-5.07 10.4 10.4 0 0 1 1.45-5.33 30.08 30.08 0 0 0 9.71 7.83A29.57 29.57 0 0 0 25.53 13a11.79 11.79 0 0 1-.26-2.43 10.23 10.23 0 0 1 3-7.48 10.64 10.64 0 0 1 15 0l.21.22A20.81 20.81 0 0 0 50.33.8a10.3 10.3 0 0 1-4.67 5.85A21.14 21.14 0 0 0 51.78 5z"/></svg><svg version="1" width="2002" height="2002" viewBox="-1.07 -1.07 1602.13 1602.13" id="vk" xmlns="http://www.w3.org/2000/svg"><path d="M0 800v800h1600V0H0v800z"/></svg><svg id="wifi" data-name="Layer 1" width="62" height="66" viewBox="-1 -1 62 66" x="836" y="2002" xmlns="http://www.w3.org/2000/svg"><defs><style>.ncls-1{fill:#d4953e}</style></defs><title>wifi</title><path class="ncls-1" d="M29.88 0A55.39 55.39 0 0 0 0 8.72l4.22 6.48a47.32 47.32 0 0 1 25.66-7.28 47.31 47.31 0 0 1 25.9 7.28L60 8.72A55.53 55.53 0 0 0 29.88 0zm0 24a31.08 31.08 0 0 0-17 5l4.22 6.72A23.09 23.09 0 0 1 29.8 32a24.17 24.17 0 0 1 13 3.76L47 29a32.37 32.37 0 0 0-17.2-5h.07zm0 24a8 8 0 1 0 8 8 8 8 0 0 0-8-8z"/></svg><svg id="youtube" data-name="Layer 1" width="36.75" height="44" viewBox="-1 -1 36.75 44" x="1151.02" y="2002" xmlns="http://www.w3.org/2000/svg"><defs><style>.ocls-1{fill:#fff}</style></defs><title>youtube</title><path class="ocls-1" d="M22.13 29.15v5q0 1.57-.91 1.57a1.5 1.5 0 0 1-1.06-.52v-7.11a1.5 1.5 0 0 1 1.06-.54q.91 0 .91 1.6zm7.92 0v1.08h-2.1v-1.06q0-1.59 1.06-1.59t1 1.59zM7.42 24h2.5v-2.14h-7.3v2.2h2.46V37.4h2.34V24zm6.75 13.4h2.09V25.82h-2.09v8.86a1.86 1.86 0 0 1-1.31 1 .48.48 0 0 1-.49-.47 6.52 6.52 0 0 1 0-.82v-8.57h-2.14V35a5.79 5.79 0 0 0 .19 1.71 1.26 1.26 0 0 0 1.36.87 3.43 3.43 0 0 0 2.39-1.43v1.25zm10.05-3.47v-4.6A8.33 8.33 0 0 0 24 27a1.63 1.63 0 0 0-1.67-1.31A2.82 2.82 0 0 0 20.16 27v-5.1h-2.08v15.5h2.09v-1.13a2.91 2.91 0 0 0 2.18 1.31A1.62 1.62 0 0 0 24 36.27a8.61 8.61 0 0 0 .22-2.35zm7.92-.24v-.3H30a11.6 11.6 0 0 1 0 1.43.9.9 0 0 1-.94.85q-1.08 0-1.08-1.61V32h4.19v-2.41a4.65 4.65 0 0 0-.66-2.72 3.2 3.2 0 0 0-5 0 4.52 4.52 0 0 0-.66 2.72v4.05a4.4 4.4 0 0 0 .66 2.72 3 3 0 0 0 2.49 1.2 2.9 2.9 0 0 0 3-2.51 10.31 10.31 0 0 0 .09-1.36zM17.89 12.3V7.38q0-1.61-1-1.61t-1 1.61v4.92q0 1.64 1 1.64t1-1.64zm16.85 17.6a40.6 40.6 0 0 1-.61 8.2 4.45 4.45 0 0 1-1.36 2.32 4.1 4.1 0 0 1-2.39 1.08 125.31 125.31 0 0 1-13 .49 125.31 125.31 0 0 1-13-.49A4.15 4.15 0 0 1 2 40.42 4.28 4.28 0 0 1 .63 38.1 39.76 39.76 0 0 1 0 29.9a40.6 40.6 0 0 1 .61-8.2A4.45 4.45 0 0 1 2 19.37a4.25 4.25 0 0 1 2.41-1.1q4.29-.47 13-.47t13 .47a4.4 4.4 0 0 1 3.75 3.42 39.76 39.76 0 0 1 .58 8.21zM11.35 0h2.39l-2.83 9.35v6.35H8.57V9.35a39.68 39.68 0 0 0-1.43-5Q6.27 2 5.61 0H8.1l1.67 6.16zM20 7.8v4.1a4.59 4.59 0 0 1-.66 2.76 2.88 2.88 0 0 1-2.49 1.19 2.9 2.9 0 0 1-2.46-1.19 4.68 4.68 0 0 1-.66-2.76V7.8a4.59 4.59 0 0 1 .66-2.74 2.9 2.9 0 0 1 2.46-1.19 2.88 2.88 0 0 1 2.49 1.19A4.59 4.59 0 0 1 20 7.8zM27.87 4v11.7h-2.13v-1.27a3.37 3.37 0 0 1-2.41 1.45A1.31 1.31 0 0 1 22 15a6 6 0 0 1-.19-1.76V4h2.13v8.6a6.14 6.14 0 0 0 0 .82.49.49 0 0 0 .47.52 1.87 1.87 0 0 0 1.31-1V4h2.16z"/></svg></svg>